<svg xmlns="http://www.w3.org/2000/svg" xmlns:xlink="http://www.w3.org/1999/xlink" width="300" zoomAndPan="magnify" viewBox="0 0 224.87999 60" height="80" preserveAspectRatio="xMidYMid meet" version="1.0"><defs><g/><clipPath id="fc56014835"><path d="M 6 0.015625 L 219 0.015625 L 219 59.984375 L 6 59.984375 Z M 6 0.015625 " clip-rule="nonzero"/></clipPath><clipPath id="ec7cd5eab2"><rect x="0" width="213" y="0" height="60"/></clipPath></defs><g clip-path="url(#fc56014835)"><g transform="matrix(1, 0, 0, 1, 6, -0.000000000000011803)"><g clip-path="url(#ec7cd5eab2)"><g fill="#70a955" fill-opacity="1"><g transform="translate(1.817012, 42.561885)"><g><path d="M 8.027344 1.265625 C 6.261719 1.265625 4.851562 0.730469 3.785156 -0.332031 C 2.722656 -1.394531 2.191406 -2.808594 2.191406 -4.570312 L 2.191406 -31.765625 L 3.101562 -31.929688 C 3.488281 -32 4.09375 -32.09375 4.917969 -32.214844 C 5.785156 -32.339844 6.617188 -32.40625 7.417969 -32.40625 C 8.269531 -32.40625 9.027344 -32.339844 9.691406 -32.207031 C 10.449219 -32.054688 11.097656 -31.773438 11.640625 -31.371094 C 12.21875 -30.933594 12.648438 -30.34375 12.929688 -29.601562 C 13.179688 -28.933594 13.304688 -28.09375 13.304688 -27.078125 L 13.304688 -7.011719 L 12.191406 -7.011719 L 12.191406 -8.121094 L 24.4375 -8.121094 L 24.761719 -7.605469 C 25.050781 -7.15625 25.3125 -6.570312 25.542969 -5.855469 C 25.78125 -5.117188 25.902344 -4.351562 25.902344 -3.554688 C 25.902344 -1.886719 25.5 -0.664062 24.703125 0.113281 C 23.910156 0.878906 22.890625 1.265625 21.640625 1.265625 Z M 8.027344 -0.957031 L 21.640625 -0.957031 C 22.289062 -0.957031 22.792969 -1.132812 23.152344 -1.484375 C 23.503906 -1.824219 23.679688 -2.515625 23.679688 -3.554688 C 23.679688 -4.117188 23.597656 -4.652344 23.429688 -5.167969 C 23.253906 -5.707031 23.074219 -6.121094 22.886719 -6.414062 L 23.824219 -7.011719 L 23.824219 -5.898438 L 11.082031 -5.898438 L 11.082031 -27.078125 C 11.082031 -27.824219 11.003906 -28.40625 10.847656 -28.820312 C 10.71875 -29.160156 10.539062 -29.417969 10.304688 -29.589844 C 10.035156 -29.796875 9.683594 -29.941406 9.257812 -30.027344 C 8.734375 -30.128906 8.121094 -30.183594 7.417969 -30.183594 C 6.726562 -30.183594 6 -30.125 5.242188 -30.015625 C 4.441406 -29.898438 3.859375 -29.808594 3.5 -29.742188 L 3.300781 -30.835938 L 4.414062 -30.835938 L 4.414062 -4.570312 C 4.414062 -3.421875 4.726562 -2.53125 5.359375 -1.902344 C 5.988281 -1.273438 6.878906 -0.957031 8.027344 -0.957031 Z M 8.027344 -0.957031 "/></g></g></g><g fill="#70a955" fill-opacity="1"><g transform="translate(25.541153, 42.561885)"><g><path d="M 29.304688 -12.34375 C 29.304688 -10.105469 28.957031 -8.097656 28.265625 -6.324219 C 27.5625 -4.53125 26.566406 -3.019531 25.28125 -1.789062 C 23.996094 -0.558594 22.46875 0.367188 20.691406 0.996094 C 18.945312 1.613281 17.011719 1.925781 14.882812 1.925781 C 12.753906 1.925781 10.808594 1.59375 9.058594 0.9375 C 7.289062 0.273438 5.761719 -0.679688 4.484375 -1.921875 C 3.199219 -3.167969 2.207031 -4.675781 1.507812 -6.449219 C 0.8125 -8.207031 0.464844 -10.171875 0.464844 -12.34375 C 0.464844 -14.484375 0.8125 -16.433594 1.507812 -18.1875 C 2.207031 -19.964844 3.199219 -21.472656 4.484375 -22.71875 C 5.761719 -23.960938 7.289062 -24.914062 9.058594 -25.578125 C 10.808594 -26.234375 12.753906 -26.5625 14.882812 -26.5625 C 17.019531 -26.5625 18.964844 -26.222656 20.71875 -25.546875 C 22.488281 -24.867188 24.007812 -23.90625 25.285156 -22.667969 C 26.566406 -21.421875 27.5625 -19.914062 28.261719 -18.136719 C 28.957031 -16.382812 29.304688 -14.449219 29.304688 -12.34375 Z M 27.082031 -12.34375 C 27.082031 -14.167969 26.789062 -15.828125 26.195312 -17.320312 C 25.609375 -18.796875 24.792969 -20.050781 23.738281 -21.074219 C 22.675781 -22.101562 21.40625 -22.902344 19.921875 -23.472656 C 18.421875 -24.050781 16.746094 -24.339844 14.882812 -24.339844 C 13.019531 -24.339844 11.339844 -24.058594 9.839844 -23.496094 C 8.359375 -22.941406 7.089844 -22.148438 6.03125 -21.125 C 4.976562 -20.101562 4.160156 -18.847656 3.574219 -17.371094 C 2.980469 -15.878906 2.6875 -14.203125 2.6875 -12.34375 C 2.6875 -10.453125 2.980469 -8.761719 3.574219 -7.265625 C 4.160156 -5.789062 4.976562 -4.539062 6.03125 -3.515625 C 7.089844 -2.488281 8.359375 -1.699219 9.839844 -1.140625 C 11.339844 -0.578125 13.019531 -0.296875 14.882812 -0.296875 C 16.753906 -0.296875 18.445312 -0.566406 19.949219 -1.097656 C 21.425781 -1.621094 22.691406 -2.386719 23.742188 -3.394531 C 24.792969 -4.398438 25.609375 -5.644531 26.195312 -7.136719 C 26.785156 -8.648438 27.082031 -10.386719 27.082031 -12.34375 Z M 11.527344 -12.34375 C 11.527344 -10.519531 11.851562 -9.152344 12.507812 -8.246094 C 13.082031 -7.453125 13.890625 -7.054688 14.933594 -7.054688 C 15.964844 -7.054688 16.753906 -7.453125 17.292969 -8.246094 C 17.925781 -9.175781 18.242188 -10.542969 18.242188 -12.34375 C 18.242188 -14.140625 17.921875 -15.492188 17.28125 -16.402344 C 16.722656 -17.191406 15.925781 -17.582031 14.882812 -17.582031 C 13.84375 -17.582031 13.046875 -17.191406 12.488281 -16.402344 C 11.847656 -15.492188 11.527344 -14.140625 11.527344 -12.34375 Z M 9.304688 -12.34375 C 9.304688 -14.613281 9.761719 -16.394531 10.675781 -17.6875 C 11.675781 -19.097656 13.078125 -19.804688 14.882812 -19.804688 C 16.691406 -19.804688 18.09375 -19.097656 19.09375 -17.6875 C 20.007812 -16.394531 20.464844 -14.613281 20.464844 -12.34375 C 20.464844 -10.085938 20.019531 -8.300781 19.128906 -6.992188 C 18.148438 -5.554688 16.75 -4.832031 14.933594 -4.832031 C 13.132812 -4.832031 11.726562 -5.535156 10.707031 -6.945312 C 9.769531 -8.238281 9.304688 -10.039062 9.304688 -12.34375 Z M 9.304688 -12.34375 "/></g></g></g><g fill="#70a955" fill-opacity="1"><g transform="translate(53.481815, 42.561885)"><g><path d="M 16.5625 -17.53125 C 15.84375 -17.53125 15.160156 -17.417969 14.519531 -17.191406 C 13.90625 -16.972656 13.375 -16.652344 12.925781 -16.234375 C 12.480469 -15.8125 12.117188 -15.285156 11.839844 -14.644531 C 11.5625 -14.007812 11.425781 -13.242188 11.425781 -12.34375 C 11.425781 -10.582031 11.898438 -9.285156 12.847656 -8.457031 C 13.839844 -7.589844 15.0625 -7.15625 16.511719 -7.15625 C 17.410156 -7.15625 18.179688 -7.257812 18.816406 -7.460938 C 19.511719 -7.683594 20.128906 -7.917969 20.660156 -8.167969 L 21.242188 -8.441406 L 21.769531 -8.074219 C 22.574219 -7.507812 23.1875 -6.882812 23.609375 -6.191406 C 24.054688 -5.453125 24.277344 -4.59375 24.277344 -3.605469 C 24.277344 -1.789062 23.429688 -0.394531 21.738281 0.582031 C 20.246094 1.441406 18.234375 1.875 15.699219 1.875 C 13.433594 1.875 11.375 1.539062 9.527344 0.867188 C 7.660156 0.191406 6.054688 -0.765625 4.710938 -2 C 3.355469 -3.242188 2.308594 -4.734375 1.566406 -6.472656 C 0.832031 -8.203125 0.464844 -10.109375 0.464844 -12.191406 C 0.464844 -14.582031 0.859375 -16.683594 1.648438 -18.503906 C 2.441406 -20.332031 3.53125 -21.847656 4.910156 -23.039062 C 6.277344 -24.222656 7.851562 -25.105469 9.632812 -25.695312 C 11.390625 -26.273438 13.242188 -26.5625 15.191406 -26.5625 C 17.851562 -26.5625 19.9375 -26.058594 21.445312 -25.054688 C 23.09375 -23.953125 23.921875 -22.511719 23.921875 -20.726562 C 23.921875 -19.894531 23.722656 -19.117188 23.328125 -18.390625 C 22.972656 -17.738281 22.554688 -17.171875 22.070312 -16.691406 L 21.519531 -16.136719 L 20.8125 -16.46875 C 20.28125 -16.71875 19.636719 -16.964844 18.871094 -17.203125 C 18.167969 -17.421875 17.394531 -17.53125 16.5625 -17.53125 Z M 16.5625 -19.753906 C 17.621094 -19.753906 18.613281 -19.613281 19.535156 -19.324219 C 20.394531 -19.054688 21.136719 -18.773438 21.757812 -18.480469 L 21.285156 -17.476562 L 20.5 -18.261719 C 20.832031 -18.59375 21.125 -18.992188 21.375 -19.457031 C 21.589844 -19.847656 21.699219 -20.273438 21.699219 -20.726562 C 21.699219 -21.71875 21.203125 -22.546875 20.210938 -23.207031 C 19.078125 -23.960938 17.402344 -24.339844 15.191406 -24.339844 C 13.480469 -24.339844 11.859375 -24.085938 10.332031 -23.582031 C 8.828125 -23.085938 7.507812 -22.347656 6.367188 -21.359375 C 5.242188 -20.386719 4.347656 -19.140625 3.6875 -17.617188 C 3.019531 -16.082031 2.6875 -14.273438 2.6875 -12.191406 C 2.6875 -10.414062 2.996094 -8.796875 3.613281 -7.34375 C 4.226562 -5.898438 5.09375 -4.664062 6.210938 -3.636719 C 7.339844 -2.605469 8.695312 -1.796875 10.285156 -1.222656 C 11.890625 -0.640625 13.695312 -0.347656 15.699219 -0.347656 C 17.835938 -0.347656 19.480469 -0.679688 20.628906 -1.34375 C 21.578125 -1.890625 22.054688 -2.644531 22.054688 -3.605469 C 22.054688 -4.179688 21.9375 -4.65625 21.707031 -5.039062 C 21.449219 -5.464844 21.046875 -5.867188 20.496094 -6.253906 L 21.132812 -7.164062 L 21.605469 -6.15625 C 20.988281 -5.867188 20.28125 -5.59375 19.488281 -5.34375 C 18.632812 -5.070312 17.640625 -4.933594 16.511719 -4.933594 C 14.503906 -4.933594 12.796875 -5.550781 11.386719 -6.78125 C 9.929688 -8.054688 9.203125 -9.910156 9.203125 -12.34375 C 9.203125 -13.546875 9.402344 -14.609375 9.800781 -15.53125 C 10.199219 -16.449219 10.734375 -17.222656 11.40625 -17.855469 C 12.078125 -18.484375 12.867188 -18.960938 13.777344 -19.285156 C 14.660156 -19.597656 15.585938 -19.753906 16.5625 -19.753906 Z M 16.5625 -19.753906 "/></g></g></g><g fill="#70a955" fill-opacity="1"><g transform="translate(76.494744, 42.561885)"><g><path d="M 13.207031 -6.597656 C 13.722656 -6.597656 14.292969 -6.652344 14.925781 -6.757812 C 15.484375 -6.855469 15.871094 -6.96875 16.089844 -7.101562 L 16.664062 -6.148438 L 15.550781 -6.148438 L 15.550781 -10.210938 L 16.664062 -10.210938 L 16.753906 -9.105469 L 13.097656 -8.796875 C 12.304688 -8.742188 11.675781 -8.585938 11.207031 -8.324219 C 10.980469 -8.199219 10.863281 -8.015625 10.863281 -7.773438 C 10.863281 -7.449219 10.988281 -7.1875 11.238281 -6.988281 C 11.558594 -6.726562 12.214844 -6.597656 13.207031 -6.597656 Z M 13.207031 -4.375 C 11.695312 -4.375 10.570312 -4.667969 9.84375 -5.257812 C 9.042969 -5.902344 8.640625 -6.742188 8.640625 -7.773438 C 8.640625 -8.886719 9.136719 -9.71875 10.128906 -10.269531 C 10.882812 -10.6875 11.808594 -10.933594 12.914062 -11.011719 L 17.773438 -11.417969 L 17.773438 -5.519531 L 17.234375 -5.195312 C 16.777344 -4.917969 16.132812 -4.710938 15.300781 -4.570312 C 14.542969 -4.441406 13.847656 -4.375 13.207031 -4.375 Z M 12.800781 -26.5625 C 14.722656 -26.5625 16.476562 -26.367188 18.074219 -25.972656 C 19.71875 -25.566406 21.128906 -24.9375 22.3125 -24.09375 C 23.53125 -23.226562 24.46875 -22.121094 25.128906 -20.785156 C 25.78125 -19.464844 26.105469 -17.917969 26.105469 -16.15625 L 26.105469 -4.773438 C 26.105469 -3.617188 25.769531 -2.652344 25.09375 -1.882812 C 24.523438 -1.238281 23.851562 -0.679688 23.078125 -0.214844 C 20.699219 1.210938 17.410156 1.925781 13.207031 1.925781 C 11.328125 1.925781 9.625 1.746094 8.101562 1.386719 C 6.535156 1.019531 5.179688 0.460938 4.039062 -0.289062 C 2.847656 -1.070312 1.925781 -2.070312 1.28125 -3.289062 C 0.632812 -4.5 0.3125 -5.894531 0.3125 -7.46875 C 0.3125 -10.132812 1.128906 -12.203125 2.761719 -13.675781 C 4.328125 -15.09375 6.6875 -15.964844 9.839844 -16.292969 L 16.492188 -17.003906 L 16.613281 -15.902344 L 15.5 -15.902344 L 15.5 -16.257812 C 15.5 -16.539062 15.449219 -16.765625 15.339844 -16.9375 C 15.238281 -17.105469 15.066406 -17.25 14.828125 -17.367188 C 14.117188 -17.714844 13.035156 -17.886719 11.582031 -17.886719 C 10.378906 -17.886719 9.203125 -17.761719 8.0625 -17.507812 C 6.90625 -17.25 5.867188 -16.933594 4.945312 -16.550781 L 4.386719 -16.320312 L 3.890625 -16.664062 C 3.289062 -17.078125 2.792969 -17.6875 2.40625 -18.488281 C 2.023438 -19.269531 1.835938 -20.082031 1.835938 -20.929688 C 1.835938 -22.070312 2.128906 -23.007812 2.714844 -23.734375 C 3.257812 -24.40625 4.050781 -24.964844 5.105469 -25.40625 L 5.125 -25.417969 L 5.144531 -25.421875 C 6.207031 -25.828125 7.453125 -26.121094 8.878906 -26.300781 C 10.261719 -26.476562 11.570312 -26.5625 12.800781 -26.5625 Z M 12.800781 -24.339844 C 11.664062 -24.339844 10.449219 -24.257812 9.15625 -24.09375 C 7.90625 -23.9375 6.832031 -23.6875 5.929688 -23.34375 L 5.539062 -24.382812 L 5.96875 -23.359375 C 5.261719 -23.0625 4.753906 -22.722656 4.445312 -22.339844 C 4.1875 -22.019531 4.058594 -21.550781 4.058594 -20.929688 C 4.058594 -20.421875 4.171875 -19.933594 4.402344 -19.460938 C 4.621094 -19.007812 4.875 -18.683594 5.152344 -18.492188 L 4.519531 -17.578125 L 4.097656 -18.605469 C 5.136719 -19.035156 6.300781 -19.394531 7.582031 -19.679688 C 8.882812 -19.964844 10.214844 -20.109375 11.582031 -20.109375 C 13.378906 -20.109375 14.789062 -19.863281 15.804688 -19.363281 C 16.429688 -19.054688 16.90625 -18.636719 17.234375 -18.101562 C 17.558594 -17.570312 17.722656 -16.957031 17.722656 -16.257812 L 17.722656 -14.902344 L 10.074219 -14.085938 C 7.398438 -13.804688 5.460938 -13.117188 4.25 -12.027344 C 3.105469 -10.996094 2.535156 -9.476562 2.535156 -7.46875 C 2.535156 -6.265625 2.769531 -5.21875 3.242188 -4.332031 C 3.710938 -3.449219 4.382812 -2.722656 5.257812 -2.148438 C 6.179688 -1.542969 7.300781 -1.085938 8.609375 -0.777344 C 9.96875 -0.457031 11.5 -0.296875 13.207031 -0.296875 C 17 -0.296875 19.90625 -0.90625 21.933594 -2.121094 C 22.511719 -2.46875 23.007812 -2.878906 23.421875 -3.351562 C 23.730469 -3.699219 23.882812 -4.175781 23.882812 -4.773438 L 23.882812 -16.15625 C 23.882812 -17.574219 23.632812 -18.789062 23.132812 -19.804688 C 22.640625 -20.804688 21.9375 -21.632812 21.019531 -22.285156 C 20.070312 -22.964844 18.910156 -23.476562 17.539062 -23.8125 C 16.121094 -24.164062 14.539062 -24.339844 12.800781 -24.339844 Z M 12.800781 -24.339844 "/></g></g></g><g fill="#70a955" fill-opacity="1"><g transform="translate(102.301747, 42.561885)"><g><path d="M 12.390625 -8.484375 C 12.390625 -8 12.503906 -7.679688 12.734375 -7.527344 C 13.105469 -7.28125 13.6875 -7.15625 14.476562 -7.15625 C 14.929688 -7.15625 15.398438 -7.195312 15.882812 -7.269531 C 16.363281 -7.34375 16.777344 -7.441406 17.125 -7.558594 L 17.851562 -7.800781 L 18.335938 -7.207031 C 18.695312 -6.765625 19.003906 -6.277344 19.265625 -5.738281 C 19.558594 -5.128906 19.703125 -4.417969 19.703125 -3.605469 C 19.703125 -1.976562 19.089844 -0.640625 17.859375 0.394531 C 16.6875 1.378906 14.75 1.875 12.039062 1.875 C 8.789062 1.875 6.257812 1.109375 4.441406 -0.421875 C 2.566406 -1.996094 1.632812 -4.480469 1.632812 -7.875 L 1.632812 -30.464844 L 2.449219 -30.6875 C 2.859375 -30.800781 3.425781 -30.917969 4.15625 -31.042969 C 4.914062 -31.171875 5.710938 -31.234375 6.554688 -31.234375 C 8.257812 -31.234375 9.617188 -30.917969 10.628906 -30.277344 C 11.800781 -29.535156 12.390625 -28.113281 12.390625 -26.011719 L 12.390625 -22.757812 L 11.277344 -22.757812 L 11.277344 -23.871094 L 18.59375 -23.871094 L 18.910156 -23.289062 C 19.144531 -22.859375 19.363281 -22.335938 19.570312 -21.714844 C 19.796875 -21.039062 19.90625 -20.304688 19.90625 -19.507812 C 19.90625 -18.015625 19.535156 -16.898438 18.792969 -16.15625 C 18.054688 -15.414062 17.089844 -15.042969 15.902344 -15.042969 L 11.277344 -15.042969 L 11.277344 -16.15625 L 12.390625 -16.15625 Z M 10.167969 -8.484375 L 10.167969 -17.265625 L 15.902344 -17.265625 C 16.472656 -17.265625 16.914062 -17.421875 17.222656 -17.726562 C 17.53125 -18.035156 17.683594 -18.628906 17.683594 -19.507812 C 17.683594 -20.066406 17.609375 -20.566406 17.460938 -21.011719 C 17.296875 -21.507812 17.128906 -21.910156 16.957031 -22.226562 L 17.933594 -22.757812 L 17.933594 -21.648438 L 10.167969 -21.648438 L 10.167969 -26.011719 C 10.167969 -27.296875 9.925781 -28.089844 9.4375 -28.398438 C 8.789062 -28.808594 7.828125 -29.015625 6.554688 -29.015625 C 5.835938 -29.015625 5.164062 -28.960938 4.53125 -28.851562 C 3.871094 -28.738281 3.375 -28.636719 3.035156 -28.542969 L 2.742188 -29.617188 L 3.855469 -29.617188 L 3.855469 -7.875 C 3.855469 -5.171875 4.527344 -3.253906 5.871094 -2.121094 C 7.273438 -0.941406 9.328125 -0.347656 12.039062 -0.347656 C 14.207031 -0.347656 15.671875 -0.667969 16.429688 -1.308594 C 17.132812 -1.898438 17.480469 -2.664062 17.480469 -3.605469 C 17.480469 -4.082031 17.410156 -4.472656 17.261719 -4.777344 C 17.078125 -5.152344 16.863281 -5.496094 16.617188 -5.800781 L 17.476562 -6.503906 L 17.828125 -5.449219 C 17.363281 -5.292969 16.828125 -5.167969 16.226562 -5.074219 C 15.625 -4.980469 15.042969 -4.933594 14.476562 -4.933594 C 13.238281 -4.933594 12.246094 -5.183594 11.5 -5.679688 C 10.609375 -6.273438 10.167969 -7.207031 10.167969 -8.484375 Z M 10.167969 -8.484375 "/></g></g></g><g fill="#70a955" fill-opacity="1"><g transform="translate(120.488587, 42.561885)"><g><path d="M 15.699219 1.925781 C 13.582031 1.925781 11.613281 1.625 9.789062 1.03125 C 7.933594 0.425781 6.316406 -0.488281 4.929688 -1.707031 C 3.535156 -2.933594 2.441406 -4.472656 1.644531 -6.316406 C 0.859375 -8.152344 0.464844 -10.277344 0.464844 -12.699219 C 0.464844 -15.09375 0.859375 -17.171875 1.65625 -18.925781 C 2.449219 -20.679688 3.5 -22.128906 4.808594 -23.265625 C 6.105469 -24.398438 7.589844 -25.234375 9.261719 -25.773438 C 10.894531 -26.300781 12.566406 -26.5625 14.273438 -26.5625 C 16.203125 -26.5625 17.964844 -26.269531 19.5625 -25.679688 C 21.164062 -25.089844 22.554688 -24.273438 23.726562 -23.234375 C 24.910156 -22.179688 25.832031 -20.921875 26.492188 -19.453125 C 27.148438 -17.988281 27.476562 -16.398438 27.476562 -14.679688 C 27.476562 -13.210938 27.039062 -12.0625 26.164062 -11.234375 C 25.351562 -10.460938 24.253906 -9.976562 22.871094 -9.773438 L 10.324219 -7.894531 L 10.160156 -8.992188 L 11.214844 -9.34375 C 11.488281 -8.523438 12.0625 -7.898438 12.929688 -7.476562 C 13.929688 -6.992188 15.089844 -6.75 16.410156 -6.75 C 17.691406 -6.75 18.902344 -6.914062 20.039062 -7.242188 C 21.179688 -7.570312 22.097656 -7.945312 22.789062 -8.367188 L 23.375 -8.722656 L 23.957031 -8.359375 C 24.648438 -7.929688 25.222656 -7.332031 25.6875 -6.574219 C 26.167969 -5.785156 26.410156 -4.949219 26.410156 -4.0625 C 26.410156 -3.089844 26.175781 -2.226562 25.707031 -1.480469 C 25.246094 -0.742188 24.570312 -0.140625 23.679688 0.324219 C 22.488281 0.957031 21.152344 1.386719 19.671875 1.605469 C 18.261719 1.820312 16.9375 1.925781 15.699219 1.925781 Z M 15.699219 -0.296875 C 16.828125 -0.296875 18.042969 -0.394531 19.34375 -0.589844 C 20.570312 -0.773438 21.675781 -1.125 22.648438 -1.644531 C 23.183594 -1.925781 23.574219 -2.261719 23.824219 -2.660156 C 24.066406 -3.046875 24.1875 -3.515625 24.1875 -4.0625 C 24.1875 -4.53125 24.054688 -4.984375 23.792969 -5.414062 C 23.511719 -5.875 23.171875 -6.230469 22.78125 -6.472656 L 23.367188 -7.417969 L 23.945312 -6.46875 C 23.082031 -5.941406 21.984375 -5.488281 20.652344 -5.105469 C 19.316406 -4.71875 17.902344 -4.527344 16.410156 -4.527344 C 14.75 -4.527344 13.265625 -4.84375 11.960938 -5.476562 C 10.527344 -6.171875 9.578125 -7.226562 9.105469 -8.640625 L 8.6875 -9.894531 L 22.546875 -11.972656 C 23.464844 -12.105469 24.164062 -12.398438 24.636719 -12.847656 C 25.046875 -13.238281 25.253906 -13.847656 25.253906 -14.679688 C 25.253906 -16.082031 24.992188 -17.367188 24.460938 -18.542969 C 23.933594 -19.71875 23.199219 -20.730469 22.25 -21.574219 C 21.289062 -22.429688 20.136719 -23.101562 18.792969 -23.59375 C 17.445312 -24.09375 15.9375 -24.339844 14.273438 -24.339844 C 12.800781 -24.339844 11.355469 -24.113281 9.941406 -23.65625 C 8.5625 -23.210938 7.339844 -22.523438 6.265625 -21.589844 C 5.203125 -20.664062 4.339844 -19.46875 3.679688 -18.007812 C 3.015625 -16.542969 2.6875 -14.777344 2.6875 -12.699219 C 2.6875 -10.582031 3.019531 -8.75 3.6875 -7.195312 C 4.351562 -5.65625 5.253906 -4.382812 6.398438 -3.375 C 7.554688 -2.355469 8.914062 -1.59375 10.480469 -1.082031 C 12.078125 -0.558594 13.816406 -0.296875 15.699219 -0.296875 Z M 14.273438 -18.039062 C 13.625 -18.039062 13.074219 -17.9375 12.628906 -17.734375 C 12.179688 -17.53125 11.820312 -17.273438 11.554688 -16.96875 C 11.273438 -16.652344 11.066406 -16.300781 10.929688 -15.910156 C 10.777344 -15.484375 10.6875 -15.050781 10.660156 -14.613281 L 9.550781 -14.679688 L 9.371094 -15.777344 L 18.058594 -17.199219 L 18.238281 -16.105469 L 17.136719 -15.9375 C 17.070312 -16.386719 16.796875 -16.863281 16.3125 -17.371094 C 15.890625 -17.816406 15.210938 -18.039062 14.273438 -18.039062 Z M 14.273438 -20.261719 C 15.847656 -20.261719 17.0625 -19.808594 17.925781 -18.902344 C 18.730469 -18.054688 19.199219 -17.175781 19.335938 -16.269531 L 19.5 -15.183594 L 8.355469 -13.359375 L 8.441406 -14.75 C 8.480469 -15.394531 8.613281 -16.03125 8.832031 -16.652344 C 9.066406 -17.3125 9.417969 -17.90625 9.886719 -18.4375 C 10.363281 -18.980469 10.96875 -19.417969 11.703125 -19.757812 C 12.445312 -20.09375 13.300781 -20.261719 14.273438 -20.261719 Z M 14.273438 -20.261719 "/></g></g></g><g fill="#70a955" fill-opacity="1"><g transform="translate(146.5496, 42.561885)"><g><path d="M 11.597656 1.011719 C 11.203125 1.132812 10.617188 1.246094 9.832031 1.355469 C 9.050781 1.464844 8.246094 1.519531 7.417969 1.519531 C 6.609375 1.519531 5.878906 1.460938 5.222656 1.347656 C 4.453125 1.21875 3.792969 0.945312 3.246094 0.535156 C 2.675781 0.109375 2.246094 -0.460938 1.945312 -1.171875 C 1.667969 -1.832031 1.53125 -2.660156 1.53125 -3.65625 L 1.53125 -18.898438 C 1.53125 -19.855469 1.714844 -20.695312 2.085938 -21.414062 C 2.445312 -22.109375 2.953125 -22.726562 3.617188 -23.265625 C 4.234375 -23.769531 4.988281 -24.214844 5.871094 -24.613281 C 6.710938 -24.988281 7.613281 -25.316406 8.574219 -25.601562 C 9.535156 -25.886719 10.535156 -26.109375 11.566406 -26.269531 C 12.601562 -26.429688 13.640625 -26.511719 14.679688 -26.511719 C 16.53125 -26.511719 18.019531 -26.136719 19.15625 -25.386719 C 20.4375 -24.542969 21.074219 -23.207031 21.074219 -21.386719 C 21.074219 -20.804688 20.992188 -20.234375 20.828125 -19.675781 C 20.667969 -19.140625 20.46875 -18.65625 20.230469 -18.214844 L 19.914062 -17.632812 L 19.253906 -17.632812 C 18.574219 -17.632812 17.882812 -17.601562 17.167969 -17.539062 C 16.460938 -17.472656 15.769531 -17.375 15.09375 -17.246094 C 14.398438 -17.117188 13.75 -16.976562 13.140625 -16.828125 C 12.585938 -16.691406 12.117188 -16.539062 11.742188 -16.363281 L 11.277344 -17.375 L 12.390625 -17.375 L 12.390625 0.777344 Z M 10.957031 -1.113281 L 11.277344 -0.0507812 L 10.167969 -0.0507812 L 10.167969 -18.085938 L 10.8125 -18.382812 C 11.316406 -18.617188 11.917969 -18.816406 12.617188 -18.988281 C 13.261719 -19.144531 13.945312 -19.292969 14.675781 -19.429688 C 15.421875 -19.574219 16.1875 -19.679688 16.96875 -19.75 C 17.746094 -19.820312 18.507812 -19.855469 19.253906 -19.855469 L 19.253906 -18.746094 L 18.277344 -19.277344 C 18.445312 -19.582031 18.582031 -19.925781 18.695312 -20.304688 C 18.800781 -20.660156 18.855469 -21.019531 18.855469 -21.386719 C 18.855469 -22.410156 18.546875 -23.125 17.929688 -23.535156 C 17.167969 -24.039062 16.085938 -24.289062 14.679688 -24.289062 C 13.757812 -24.289062 12.832031 -24.21875 11.90625 -24.074219 C 10.972656 -23.929688 10.074219 -23.726562 9.207031 -23.472656 C 8.339844 -23.214844 7.527344 -22.917969 6.777344 -22.582031 C 6.070312 -22.265625 5.484375 -21.917969 5.019531 -21.539062 C 4.597656 -21.199219 4.277344 -20.816406 4.0625 -20.394531 C 3.855469 -19.996094 3.753906 -19.496094 3.753906 -18.898438 L 3.753906 -3.65625 C 3.753906 -2.960938 3.835938 -2.417969 3.996094 -2.03125 C 4.140625 -1.691406 4.332031 -1.429688 4.578125 -1.246094 C 4.839844 -1.046875 5.183594 -0.914062 5.597656 -0.839844 C 6.128906 -0.75 6.734375 -0.703125 7.417969 -0.703125 C 8.144531 -0.703125 8.847656 -0.753906 9.523438 -0.847656 C 10.195312 -0.941406 10.675781 -1.03125 10.957031 -1.113281 Z M 10.957031 -1.113281 "/></g></g></g><g fill="#70a955" fill-opacity="1"><g transform="translate(165.092022, 42.561885)"><g><path d="M 11.597656 1.011719 C 11.203125 1.132812 10.617188 1.246094 9.832031 1.355469 C 9.050781 1.464844 8.246094 1.519531 7.417969 1.519531 C 6.609375 1.519531 5.878906 1.460938 5.222656 1.347656 C 4.453125 1.21875 3.792969 0.945312 3.246094 0.535156 C 2.675781 0.109375 2.246094 -0.460938 1.945312 -1.171875 C 1.667969 -1.832031 1.53125 -2.660156 1.53125 -3.65625 L 1.53125 -18.898438 C 1.53125 -19.855469 1.714844 -20.695312 2.085938 -21.414062 C 2.445312 -22.109375 2.953125 -22.726562 3.617188 -23.265625 C 4.234375 -23.769531 4.988281 -24.214844 5.871094 -24.613281 C 6.710938 -24.988281 7.613281 -25.316406 8.574219 -25.601562 C 9.535156 -25.886719 10.535156 -26.109375 11.566406 -26.269531 C 12.601562 -26.429688 13.640625 -26.511719 14.679688 -26.511719 C 16.53125 -26.511719 18.019531 -26.136719 19.15625 -25.386719 C 20.4375 -24.542969 21.074219 -23.207031 21.074219 -21.386719 C 21.074219 -20.804688 20.992188 -20.234375 20.828125 -19.675781 C 20.667969 -19.140625 20.46875 -18.65625 20.230469 -18.214844 L 19.914062 -17.632812 L 19.253906 -17.632812 C 18.574219 -17.632812 17.882812 -17.601562 17.167969 -17.539062 C 16.460938 -17.472656 15.769531 -17.375 15.09375 -17.246094 C 14.398438 -17.117188 13.75 -16.976562 13.140625 -16.828125 C 12.585938 -16.691406 12.117188 -16.539062 11.742188 -16.363281 L 11.277344 -17.375 L 12.390625 -17.375 L 12.390625 0.777344 Z M 10.957031 -1.113281 L 11.277344 -0.0507812 L 10.167969 -0.0507812 L 10.167969 -18.085938 L 10.8125 -18.382812 C 11.316406 -18.617188 11.917969 -18.816406 12.617188 -18.988281 C 13.261719 -19.144531 13.945312 -19.292969 14.675781 -19.429688 C 15.421875 -19.574219 16.1875 -19.679688 16.96875 -19.75 C 17.746094 -19.820312 18.507812 -19.855469 19.253906 -19.855469 L 19.253906 -18.746094 L 18.277344 -19.277344 C 18.445312 -19.582031 18.582031 -19.925781 18.695312 -20.304688 C 18.800781 -20.660156 18.855469 -21.019531 18.855469 -21.386719 C 18.855469 -22.410156 18.546875 -23.125 17.929688 -23.535156 C 17.167969 -24.039062 16.085938 -24.289062 14.679688 -24.289062 C 13.757812 -24.289062 12.832031 -24.21875 11.90625 -24.074219 C 10.972656 -23.929688 10.074219 -23.726562 9.207031 -23.472656 C 8.339844 -23.214844 7.527344 -22.917969 6.777344 -22.582031 C 6.070312 -22.265625 5.484375 -21.917969 5.019531 -21.539062 C 4.597656 -21.199219 4.277344 -20.816406 4.0625 -20.394531 C 3.855469 -19.996094 3.753906 -19.496094 3.753906 -18.898438 L 3.753906 -3.65625 C 3.753906 -2.960938 3.835938 -2.417969 3.996094 -2.03125 C 4.140625 -1.691406 4.332031 -1.429688 4.578125 -1.246094 C 4.839844 -1.046875 5.183594 -0.914062 5.597656 -0.839844 C 6.128906 -0.75 6.734375 -0.703125 7.417969 -0.703125 C 8.144531 -0.703125 8.847656 -0.753906 9.523438 -0.847656 C 10.195312 -0.941406 10.675781 -1.03125 10.957031 -1.113281 Z M 10.957031 -1.113281 "/></g></g></g><g fill="#70a955" fill-opacity="1"><g transform="translate(183.380456, 42.561885)"><g><path d="M 13.207031 -6.597656 C 13.722656 -6.597656 14.292969 -6.652344 14.925781 -6.757812 C 15.484375 -6.855469 15.871094 -6.96875 16.089844 -7.101562 L 16.664062 -6.148438 L 15.550781 -6.148438 L 15.550781 -10.210938 L 16.664062 -10.210938 L 16.753906 -9.105469 L 13.097656 -8.796875 C 12.304688 -8.742188 11.675781 -8.585938 11.207031 -8.324219 C 10.980469 -8.199219 10.863281 -8.015625 10.863281 -7.773438 C 10.863281 -7.449219 10.988281 -7.1875 11.238281 -6.988281 C 11.558594 -6.726562 12.214844 -6.597656 13.207031 -6.597656 Z M 13.207031 -4.375 C 11.695312 -4.375 10.570312 -4.667969 9.84375 -5.257812 C 9.042969 -5.902344 8.640625 -6.742188 8.640625 -7.773438 C 8.640625 -8.886719 9.136719 -9.71875 10.128906 -10.269531 C 10.882812 -10.6875 11.808594 -10.933594 12.914062 -11.011719 L 17.773438 -11.417969 L 17.773438 -5.519531 L 17.234375 -5.195312 C 16.777344 -4.917969 16.132812 -4.710938 15.300781 -4.570312 C 14.542969 -4.441406 13.847656 -4.375 13.207031 -4.375 Z M 12.800781 -26.5625 C 14.722656 -26.5625 16.476562 -26.367188 18.074219 -25.972656 C 19.71875 -25.566406 21.128906 -24.9375 22.3125 -24.09375 C 23.53125 -23.226562 24.46875 -22.121094 25.128906 -20.785156 C 25.78125 -19.464844 26.105469 -17.917969 26.105469 -16.15625 L 26.105469 -4.773438 C 26.105469 -3.617188 25.769531 -2.652344 25.09375 -1.882812 C 24.523438 -1.238281 23.851562 -0.679688 23.078125 -0.214844 C 20.699219 1.210938 17.410156 1.925781 13.207031 1.925781 C 11.328125 1.925781 9.625 1.746094 8.101562 1.386719 C 6.535156 1.019531 5.179688 0.460938 4.039062 -0.289062 C 2.847656 -1.070312 1.925781 -2.070312 1.28125 -3.289062 C 0.632812 -4.5 0.3125 -5.894531 0.3125 -7.46875 C 0.3125 -10.132812 1.128906 -12.203125 2.761719 -13.675781 C 4.328125 -15.09375 6.6875 -15.964844 9.839844 -16.292969 L 16.492188 -17.003906 L 16.613281 -15.902344 L 15.5 -15.902344 L 15.5 -16.257812 C 15.5 -16.539062 15.449219 -16.765625 15.339844 -16.9375 C 15.238281 -17.105469 15.066406 -17.25 14.828125 -17.367188 C 14.117188 -17.714844 13.035156 -17.886719 11.582031 -17.886719 C 10.378906 -17.886719 9.203125 -17.761719 8.0625 -17.507812 C 6.90625 -17.25 5.867188 -16.933594 4.945312 -16.550781 L 4.386719 -16.320312 L 3.890625 -16.664062 C 3.289062 -17.078125 2.792969 -17.6875 2.40625 -18.488281 C 2.023438 -19.269531 1.835938 -20.082031 1.835938 -20.929688 C 1.835938 -22.070312 2.128906 -23.007812 2.714844 -23.734375 C 3.257812 -24.40625 4.050781 -24.964844 5.105469 -25.40625 L 5.125 -25.417969 L 5.144531 -25.421875 C 6.207031 -25.828125 7.453125 -26.121094 8.878906 -26.300781 C 10.261719 -26.476562 11.570312 -26.5625 12.800781 -26.5625 Z M 12.800781 -24.339844 C 11.664062 -24.339844 10.449219 -24.257812 9.15625 -24.09375 C 7.90625 -23.9375 6.832031 -23.6875 5.929688 -23.34375 L 5.539062 -24.382812 L 5.96875 -23.359375 C 5.261719 -23.0625 4.753906 -22.722656 4.445312 -22.339844 C 4.1875 -22.019531 4.058594 -21.550781 4.058594 -20.929688 C 4.058594 -20.421875 4.171875 -19.933594 4.402344 -19.460938 C 4.621094 -19.007812 4.875 -18.683594 5.152344 -18.492188 L 4.519531 -17.578125 L 4.097656 -18.605469 C 5.136719 -19.035156 6.300781 -19.394531 7.582031 -19.679688 C 8.882812 -19.964844 10.214844 -20.109375 11.582031 -20.109375 C 13.378906 -20.109375 14.789062 -19.863281 15.804688 -19.363281 C 16.429688 -19.054688 16.90625 -18.636719 17.234375 -18.101562 C 17.558594 -17.570312 17.722656 -16.957031 17.722656 -16.257812 L 17.722656 -14.902344 L 10.074219 -14.085938 C 7.398438 -13.804688 5.460938 -13.117188 4.25 -12.027344 C 3.105469 -10.996094 2.535156 -9.476562 2.535156 -7.46875 C 2.535156 -6.265625 2.769531 -5.21875 3.242188 -4.332031 C 3.710938 -3.449219 4.382812 -2.722656 5.257812 -2.148438 C 6.179688 -1.542969 7.300781 -1.085938 8.609375 -0.777344 C 9.96875 -0.457031 11.5 -0.296875 13.207031 -0.296875 C 17 -0.296875 19.90625 -0.90625 21.933594 -2.121094 C 22.511719 -2.46875 23.007812 -2.878906 23.421875 -3.351562 C 23.730469 -3.699219 23.882812 -4.175781 23.882812 -4.773438 L 23.882812 -16.15625 C 23.882812 -17.574219 23.632812 -18.789062 23.132812 -19.804688 C 22.640625 -20.804688 21.9375 -21.632812 21.019531 -22.285156 C 20.070312 -22.964844 18.910156 -23.476562 17.539062 -23.8125 C 16.121094 -24.164062 14.539062 -24.339844 12.800781 -24.339844 Z M 12.800781 -24.339844 "/></g></g></g><g fill="#97c52a" fill-opacity="1"><g transform="translate(1.817012, 42.561885)"><g><path d="M 8.03125 0.15625 C 6.570312 0.15625 5.414062 -0.265625 4.5625 -1.109375 C 3.71875 -1.960938 3.296875 -3.117188 3.296875 -4.578125 L 3.296875 -30.828125 C 3.671875 -30.898438 4.265625 -30.992188 5.078125 -31.109375 C 5.890625 -31.234375 6.671875 -31.296875 7.421875 -31.296875 C 8.191406 -31.296875 8.875 -31.234375 9.46875 -31.109375 C 10.0625 -30.992188 10.5625 -30.78125 10.96875 -30.46875 C 11.375 -30.164062 11.675781 -29.742188 11.875 -29.203125 C 12.082031 -28.660156 12.1875 -27.953125 12.1875 -27.078125 L 12.1875 -7.015625 L 23.828125 -7.015625 C 24.054688 -6.640625 24.269531 -6.140625 24.46875 -5.515625 C 24.675781 -4.890625 24.78125 -4.238281 24.78125 -3.5625 C 24.78125 -2.207031 24.492188 -1.25 23.921875 -0.6875 C 23.347656 -0.125 22.585938 0.15625 21.640625 0.15625 Z M 8.03125 0.15625 "/></g></g></g><g fill="#97c52a" fill-opacity="1"><g transform="translate(25.541153, 42.561885)"><g><path d="M 28.1875 -12.34375 C 28.1875 -10.238281 27.863281 -8.363281 27.21875 -6.71875 C 26.582031 -5.082031 25.675781 -3.707031 24.5 -2.59375 C 23.332031 -1.476562 21.9375 -0.628906 20.3125 -0.046875 C 18.6875 0.523438 16.878906 0.8125 14.890625 0.8125 C 12.890625 0.8125 11.078125 0.507812 9.453125 -0.09375 C 7.828125 -0.707031 6.425781 -1.582031 5.25 -2.71875 C 4.082031 -3.851562 3.175781 -5.234375 2.53125 -6.859375 C 1.894531 -8.484375 1.578125 -10.3125 1.578125 -12.34375 C 1.578125 -14.34375 1.894531 -16.15625 2.53125 -17.78125 C 3.175781 -19.40625 4.082031 -20.785156 5.25 -21.921875 C 6.425781 -23.054688 7.828125 -23.925781 9.453125 -24.53125 C 11.078125 -25.144531 12.890625 -25.453125 14.890625 -25.453125 C 16.878906 -25.453125 18.6875 -25.132812 20.3125 -24.5 C 21.9375 -23.875 23.332031 -22.992188 24.5 -21.859375 C 25.675781 -20.734375 26.582031 -19.359375 27.21875 -17.734375 C 27.863281 -16.109375 28.1875 -14.3125 28.1875 -12.34375 Z M 10.40625 -12.34375 C 10.40625 -10.28125 10.800781 -8.695312 11.59375 -7.59375 C 12.394531 -6.488281 13.507812 -5.9375 14.9375 -5.9375 C 16.351562 -5.9375 17.441406 -6.492188 18.203125 -7.609375 C 18.972656 -8.734375 19.359375 -10.3125 19.359375 -12.34375 C 19.359375 -14.375 18.96875 -15.9375 18.1875 -17.03125 C 17.40625 -18.132812 16.304688 -18.6875 14.890625 -18.6875 C 13.460938 -18.6875 12.359375 -18.132812 11.578125 -17.03125 C 10.796875 -15.9375 10.40625 -14.375 10.40625 -12.34375 Z M 10.40625 -12.34375 "/></g></g></g><g fill="#97c52a" fill-opacity="1"><g transform="translate(53.481815, 42.561885)"><g><path d="M 16.5625 -18.640625 C 15.71875 -18.640625 14.910156 -18.503906 14.140625 -18.234375 C 13.378906 -17.960938 12.71875 -17.5625 12.15625 -17.03125 C 11.601562 -16.507812 11.15625 -15.859375 10.8125 -15.078125 C 10.476562 -14.304688 10.3125 -13.394531 10.3125 -12.34375 C 10.3125 -10.238281 10.910156 -8.660156 12.109375 -7.609375 C 13.316406 -6.566406 14.785156 -6.046875 16.515625 -6.046875 C 17.523438 -6.046875 18.398438 -6.160156 19.140625 -6.390625 C 19.890625 -6.628906 20.550781 -6.882812 21.125 -7.15625 C 21.800781 -6.6875 22.304688 -6.171875 22.640625 -5.609375 C 22.984375 -5.054688 23.15625 -4.390625 23.15625 -3.609375 C 23.15625 -2.222656 22.492188 -1.144531 21.171875 -0.375 C 19.859375 0.382812 18.035156 0.765625 15.703125 0.765625 C 13.566406 0.765625 11.632812 0.453125 9.90625 -0.171875 C 8.175781 -0.804688 6.691406 -1.6875 5.453125 -2.8125 C 4.222656 -3.945312 3.269531 -5.3125 2.59375 -6.90625 C 1.914062 -8.5 1.578125 -10.257812 1.578125 -12.1875 C 1.578125 -14.425781 1.941406 -16.382812 2.671875 -18.0625 C 3.398438 -19.738281 4.390625 -21.117188 5.640625 -22.203125 C 6.890625 -23.285156 8.332031 -24.097656 9.96875 -24.640625 C 11.613281 -25.179688 13.351562 -25.453125 15.1875 -25.453125 C 17.625 -25.453125 19.503906 -25.007812 20.828125 -24.125 C 22.148438 -23.25 22.8125 -22.113281 22.8125 -20.71875 C 22.8125 -20.082031 22.65625 -19.484375 22.34375 -18.921875 C 22.039062 -18.359375 21.6875 -17.875 21.28125 -17.46875 C 20.707031 -17.738281 20.015625 -18 19.203125 -18.25 C 18.390625 -18.507812 17.507812 -18.640625 16.5625 -18.640625 Z M 16.5625 -18.640625 "/></g></g></g><g fill="#97c52a" fill-opacity="1"><g transform="translate(76.494744, 42.561885)"><g><path d="M 13.203125 -5.484375 C 13.785156 -5.484375 14.421875 -5.539062 15.109375 -5.65625 C 15.804688 -5.78125 16.320312 -5.941406 16.65625 -6.140625 L 16.65625 -10.203125 L 13 -9.90625 C 12.050781 -9.832031 11.269531 -9.625 10.65625 -9.28125 C 10.050781 -8.945312 9.75 -8.441406 9.75 -7.765625 C 9.75 -7.085938 10.007812 -6.535156 10.53125 -6.109375 C 11.0625 -5.691406 11.953125 -5.484375 13.203125 -5.484375 Z M 12.796875 -25.453125 C 14.628906 -25.453125 16.296875 -25.265625 17.796875 -24.890625 C 19.304688 -24.515625 20.59375 -23.945312 21.65625 -23.1875 C 22.726562 -22.425781 23.550781 -21.460938 24.125 -20.296875 C 24.695312 -19.128906 24.984375 -17.75 24.984375 -16.15625 L 24.984375 -4.78125 C 24.984375 -3.894531 24.738281 -3.171875 24.25 -2.609375 C 23.757812 -2.054688 23.175781 -1.578125 22.5 -1.171875 C 20.300781 0.148438 17.203125 0.8125 13.203125 0.8125 C 11.410156 0.8125 9.796875 0.640625 8.359375 0.296875 C 6.921875 -0.0351562 5.679688 -0.539062 4.640625 -1.21875 C 3.609375 -1.894531 2.8125 -2.757812 2.25 -3.8125 C 1.695312 -4.863281 1.421875 -6.082031 1.421875 -7.46875 C 1.421875 -9.800781 2.113281 -11.59375 3.5 -12.84375 C 4.894531 -14.101562 7.046875 -14.882812 9.953125 -15.1875 L 16.609375 -15.90625 L 16.609375 -16.25 C 16.609375 -17.238281 16.175781 -17.941406 15.3125 -18.359375 C 14.445312 -18.785156 13.203125 -19 11.578125 -19 C 10.296875 -19 9.046875 -18.863281 7.828125 -18.59375 C 6.609375 -18.320312 5.503906 -17.984375 4.515625 -17.578125 C 4.078125 -17.878906 3.707031 -18.34375 3.40625 -18.96875 C 3.101562 -19.59375 2.953125 -20.242188 2.953125 -20.921875 C 2.953125 -21.804688 3.160156 -22.507812 3.578125 -23.03125 C 4.003906 -23.5625 4.65625 -24.007812 5.53125 -24.375 C 6.519531 -24.75 7.679688 -25.019531 9.015625 -25.1875 C 10.347656 -25.363281 11.609375 -25.453125 12.796875 -25.453125 Z M 12.796875 -25.453125 "/></g></g></g><g fill="#97c52a" fill-opacity="1"><g transform="translate(102.301747, 42.561885)"><g><path d="M 11.28125 -8.484375 C 11.28125 -7.597656 11.554688 -6.96875 12.109375 -6.59375 C 12.671875 -6.226562 13.460938 -6.046875 14.484375 -6.046875 C 14.984375 -6.046875 15.503906 -6.085938 16.046875 -6.171875 C 16.585938 -6.253906 17.0625 -6.363281 17.46875 -6.5 C 17.78125 -6.125 18.046875 -5.707031 18.265625 -5.25 C 18.484375 -4.800781 18.59375 -4.253906 18.59375 -3.609375 C 18.59375 -2.316406 18.109375 -1.265625 17.140625 -0.453125 C 16.179688 0.359375 14.476562 0.765625 12.03125 0.765625 C 9.050781 0.765625 6.757812 0.0859375 5.15625 -1.265625 C 3.550781 -2.617188 2.75 -4.820312 2.75 -7.875 L 2.75 -29.609375 C 3.113281 -29.710938 3.644531 -29.820312 4.34375 -29.9375 C 5.039062 -30.0625 5.773438 -30.125 6.546875 -30.125 C 8.035156 -30.125 9.195312 -29.859375 10.03125 -29.328125 C 10.863281 -28.804688 11.28125 -27.703125 11.28125 -26.015625 L 11.28125 -22.75 L 17.9375 -22.75 C 18.132812 -22.382812 18.328125 -21.921875 18.515625 -21.359375 C 18.703125 -20.796875 18.796875 -20.175781 18.796875 -19.5 C 18.796875 -18.320312 18.53125 -17.46875 18 -16.9375 C 17.476562 -16.414062 16.78125 -16.15625 15.90625 -16.15625 L 11.28125 -16.15625 Z M 11.28125 -8.484375 "/></g></g></g><g fill="#97c52a" fill-opacity="1"><g transform="translate(120.488587, 42.561885)"><g><path d="M 15.703125 0.8125 C 13.703125 0.8125 11.84375 0.535156 10.125 -0.015625 C 8.414062 -0.578125 6.925781 -1.414062 5.65625 -2.53125 C 4.394531 -3.65625 3.398438 -5.0625 2.671875 -6.75 C 1.941406 -8.445312 1.578125 -10.429688 1.578125 -12.703125 C 1.578125 -14.929688 1.941406 -16.847656 2.671875 -18.453125 C 3.398438 -20.066406 4.351562 -21.390625 5.53125 -22.421875 C 6.71875 -23.453125 8.070312 -24.210938 9.59375 -24.703125 C 11.125 -25.203125 12.6875 -25.453125 14.28125 -25.453125 C 16.070312 -25.453125 17.703125 -25.179688 19.171875 -24.640625 C 20.648438 -24.097656 21.921875 -23.351562 22.984375 -22.40625 C 24.046875 -21.457031 24.875 -20.320312 25.46875 -19 C 26.0625 -17.675781 26.359375 -16.238281 26.359375 -14.6875 C 26.359375 -13.53125 26.035156 -12.644531 25.390625 -12.03125 C 24.753906 -11.425781 23.859375 -11.039062 22.703125 -10.875 L 10.15625 -8.984375 C 10.53125 -7.867188 11.289062 -7.03125 12.4375 -6.46875 C 13.59375 -5.914062 14.914062 -5.640625 16.40625 -5.640625 C 17.789062 -5.640625 19.101562 -5.816406 20.34375 -6.171875 C 21.582031 -6.523438 22.585938 -6.941406 23.359375 -7.421875 C 23.898438 -7.078125 24.359375 -6.597656 24.734375 -5.984375 C 25.109375 -5.378906 25.296875 -4.738281 25.296875 -4.0625 C 25.296875 -2.539062 24.582031 -1.40625 23.15625 -0.65625 C 22.070312 -0.0820312 20.851562 0.300781 19.5 0.5 C 18.144531 0.707031 16.878906 0.8125 15.703125 0.8125 Z M 14.28125 -19.15625 C 13.46875 -19.15625 12.765625 -19.019531 12.171875 -18.75 C 11.578125 -18.476562 11.09375 -18.128906 10.71875 -17.703125 C 10.34375 -17.273438 10.0625 -16.800781 9.875 -16.28125 C 9.6875 -15.757812 9.578125 -15.226562 9.546875 -14.6875 L 18.234375 -16.109375 C 18.128906 -16.785156 17.753906 -17.460938 17.109375 -18.140625 C 16.472656 -18.816406 15.53125 -19.15625 14.28125 -19.15625 Z M 14.28125 -19.15625 "/></g></g></g><g fill="#97c52a" fill-opacity="1"><g transform="translate(146.5496, 42.561885)"><g><path d="M 11.28125 -0.046875 C 10.9375 0.0546875 10.398438 0.15625 9.671875 0.25 C 8.941406 0.351562 8.191406 0.40625 7.421875 0.40625 C 6.671875 0.40625 6 0.351562 5.40625 0.25 C 4.8125 0.15625 4.3125 -0.0390625 3.90625 -0.34375 C 3.5 -0.65625 3.1875 -1.070312 2.96875 -1.59375 C 2.75 -2.125 2.640625 -2.8125 2.640625 -3.65625 L 2.640625 -18.890625 C 2.640625 -19.671875 2.78125 -20.335938 3.0625 -20.890625 C 3.351562 -21.453125 3.769531 -21.957031 4.3125 -22.40625 C 4.851562 -22.84375 5.519531 -23.238281 6.3125 -23.59375 C 7.113281 -23.945312 7.972656 -24.257812 8.890625 -24.53125 C 9.804688 -24.800781 10.753906 -25.015625 11.734375 -25.171875 C 12.710938 -25.328125 13.695312 -25.40625 14.6875 -25.40625 C 16.3125 -25.40625 17.597656 -25.085938 18.546875 -24.453125 C 19.492188 -23.828125 19.96875 -22.804688 19.96875 -21.390625 C 19.96875 -20.910156 19.898438 -20.441406 19.765625 -19.984375 C 19.628906 -19.523438 19.457031 -19.113281 19.25 -18.75 C 18.539062 -18.75 17.8125 -18.710938 17.0625 -18.640625 C 16.320312 -18.578125 15.59375 -18.476562 14.875 -18.34375 C 14.164062 -18.207031 13.5 -18.0625 12.875 -17.90625 C 12.25 -17.75 11.71875 -17.570312 11.28125 -17.375 Z M 11.28125 -0.046875 "/></g></g></g><g fill="#97c52a" fill-opacity="1"><g transform="translate(165.092022, 42.561885)"><g><path d="M 11.28125 -0.046875 C 10.9375 0.0546875 10.398438 0.15625 9.671875 0.25 C 8.941406 0.351562 8.191406 0.40625 7.421875 0.40625 C 6.671875 0.40625 6 0.351562 5.40625 0.25 C 4.8125 0.15625 4.3125 -0.0390625 3.90625 -0.34375 C 3.5 -0.65625 3.1875 -1.070312 2.96875 -1.59375 C 2.75 -2.125 2.640625 -2.8125 2.640625 -3.65625 L 2.640625 -18.890625 C 2.640625 -19.671875 2.78125 -20.335938 3.0625 -20.890625 C 3.351562 -21.453125 3.769531 -21.957031 4.3125 -22.40625 C 4.851562 -22.84375 5.519531 -23.238281 6.3125 -23.59375 C 7.113281 -23.945312 7.972656 -24.257812 8.890625 -24.53125 C 9.804688 -24.800781 10.753906 -25.015625 11.734375 -25.171875 C 12.710938 -25.328125 13.695312 -25.40625 14.6875 -25.40625 C 16.3125 -25.40625 17.597656 -25.085938 18.546875 -24.453125 C 19.492188 -23.828125 19.96875 -22.804688 19.96875 -21.390625 C 19.96875 -20.910156 19.898438 -20.441406 19.765625 -19.984375 C 19.628906 -19.523438 19.457031 -19.113281 19.25 -18.75 C 18.539062 -18.75 17.8125 -18.710938 17.0625 -18.640625 C 16.320312 -18.578125 15.59375 -18.476562 14.875 -18.34375 C 14.164062 -18.207031 13.5 -18.0625 12.875 -17.90625 C 12.25 -17.75 11.71875 -17.570312 11.28125 -17.375 Z M 11.28125 -0.046875 "/></g></g></g><g fill="#97c52a" fill-opacity="1"><g transform="translate(183.380456, 42.561885)"><g><path d="M 13.203125 -5.484375 C 13.785156 -5.484375 14.421875 -5.539062 15.109375 -5.65625 C 15.804688 -5.78125 16.320312 -5.941406 16.65625 -6.140625 L 16.65625 -10.203125 L 13 -9.90625 C 12.050781 -9.832031 11.269531 -9.625 10.65625 -9.28125 C 10.050781 -8.945312 9.75 -8.441406 9.75 -7.765625 C 9.75 -7.085938 10.007812 -6.535156 10.53125 -6.109375 C 11.0625 -5.691406 11.953125 -5.484375 13.203125 -5.484375 Z M 12.796875 -25.453125 C 14.628906 -25.453125 16.296875 -25.265625 17.796875 -24.890625 C 19.304688 -24.515625 20.59375 -23.945312 21.65625 -23.1875 C 22.726562 -22.425781 23.550781 -21.460938 24.125 -20.296875 C 24.695312 -19.128906 24.984375 -17.75 24.984375 -16.15625 L 24.984375 -4.78125 C 24.984375 -3.894531 24.738281 -3.171875 24.25 -2.609375 C 23.757812 -2.054688 23.175781 -1.578125 22.5 -1.171875 C 20.300781 0.148438 17.203125 0.8125 13.203125 0.8125 C 11.410156 0.8125 9.796875 0.640625 8.359375 0.296875 C 6.921875 -0.0351562 5.679688 -0.539062 4.640625 -1.21875 C 3.609375 -1.894531 2.8125 -2.757812 2.25 -3.8125 C 1.695312 -4.863281 1.421875 -6.082031 1.421875 -7.46875 C 1.421875 -9.800781 2.113281 -11.59375 3.5 -12.84375 C 4.894531 -14.101562 7.046875 -14.882812 9.953125 -15.1875 L 16.609375 -15.90625 L 16.609375 -16.25 C 16.609375 -17.238281 16.175781 -17.941406 15.3125 -18.359375 C 14.445312 -18.785156 13.203125 -19 11.578125 -19 C 10.296875 -19 9.046875 -18.863281 7.828125 -18.59375 C 6.609375 -18.320312 5.503906 -17.984375 4.515625 -17.578125 C 4.078125 -17.878906 3.707031 -18.34375 3.40625 -18.96875 C 3.101562 -19.59375 2.953125 -20.242188 2.953125 -20.921875 C 2.953125 -21.804688 3.160156 -22.507812 3.578125 -23.03125 C 4.003906 -23.5625 4.65625 -24.007812 5.53125 -24.375 C 6.519531 -24.75 7.679688 -25.019531 9.015625 -25.1875 C 10.347656 -25.363281 11.609375 -25.453125 12.796875 -25.453125 Z M 12.796875 -25.453125 "/></g></g></g></g></g></g></svg>