<svg xmlns="http://www.w3.org/2000/svg" xmlns:xlink="http://www.w3.org/1999/xlink" width="300" zoomAndPan="magnify" viewBox="0 0 224.87999 60" height="80" preserveAspectRatio="xMidYMid meet" version="1.0"><defs><g/><clipPath id="b31ae41e72"><path d="M 6 0.015625 L 217 0.015625 L 217 59.984375 L 6 59.984375 Z M 6 0.015625 " clip-rule="nonzero"/></clipPath><clipPath id="c3b9769ac1"><rect x="0" width="211" y="0" height="60"/></clipPath></defs><g clip-path="url(#b31ae41e72)"><g transform="matrix(1, 0, 0, 1, 6, -0.000000000000011803)"><g clip-path="url(#c3b9769ac1)"><g fill="#97c52a" fill-opacity="1"><g transform="translate(1.817012, 42.561885)"><g><path d="M 8.03125 0.15625 C 6.570312 0.15625 5.414062 -0.265625 4.5625 -1.109375 C 3.71875 -1.960938 3.296875 -3.117188 3.296875 -4.578125 L 3.296875 -30.828125 C 3.671875 -30.898438 4.265625 -30.992188 5.078125 -31.109375 C 5.890625 -31.234375 6.671875 -31.296875 7.421875 -31.296875 C 8.191406 -31.296875 8.875 -31.234375 9.46875 -31.109375 C 10.0625 -30.992188 10.5625 -30.78125 10.96875 -30.46875 C 11.375 -30.164062 11.675781 -29.742188 11.875 -29.203125 C 12.082031 -28.660156 12.1875 -27.953125 12.1875 -27.078125 L 12.1875 -7.015625 L 23.828125 -7.015625 C 24.054688 -6.640625 24.269531 -6.140625 24.46875 -5.515625 C 24.675781 -4.890625 24.78125 -4.238281 24.78125 -3.5625 C 24.78125 -2.207031 24.492188 -1.25 23.921875 -0.6875 C 23.347656 -0.125 22.585938 0.15625 21.640625 0.15625 Z M 8.03125 0.15625 "/></g></g></g><g fill="#97c52a" fill-opacity="1"><g transform="translate(25.541153, 42.561885)"><g><path d="M 28.1875 -12.34375 C 28.1875 -10.238281 27.863281 -8.363281 27.21875 -6.71875 C 26.582031 -5.082031 25.675781 -3.707031 24.5 -2.59375 C 23.332031 -1.476562 21.9375 -0.628906 20.3125 -0.046875 C 18.6875 0.523438 16.878906 0.8125 14.890625 0.8125 C 12.890625 0.8125 11.078125 0.507812 9.453125 -0.09375 C 7.828125 -0.707031 6.425781 -1.582031 5.25 -2.71875 C 4.082031 -3.851562 3.175781 -5.234375 2.53125 -6.859375 C 1.894531 -8.484375 1.578125 -10.3125 1.578125 -12.34375 C 1.578125 -14.34375 1.894531 -16.15625 2.53125 -17.78125 C 3.175781 -19.40625 4.082031 -20.785156 5.25 -21.921875 C 6.425781 -23.054688 7.828125 -23.925781 9.453125 -24.53125 C 11.078125 -25.144531 12.890625 -25.453125 14.890625 -25.453125 C 16.878906 -25.453125 18.6875 -25.132812 20.3125 -24.5 C 21.9375 -23.875 23.332031 -22.992188 24.5 -21.859375 C 25.675781 -20.734375 26.582031 -19.359375 27.21875 -17.734375 C 27.863281 -16.109375 28.1875 -14.3125 28.1875 -12.34375 Z M 10.40625 -12.34375 C 10.40625 -10.28125 10.800781 -8.695312 11.59375 -7.59375 C 12.394531 -6.488281 13.507812 -5.9375 14.9375 -5.9375 C 16.351562 -5.9375 17.441406 -6.492188 18.203125 -7.609375 C 18.972656 -8.734375 19.359375 -10.3125 19.359375 -12.34375 C 19.359375 -14.375 18.96875 -15.9375 18.1875 -17.03125 C 17.40625 -18.132812 16.304688 -18.6875 14.890625 -18.6875 C 13.460938 -18.6875 12.359375 -18.132812 11.578125 -17.03125 C 10.796875 -15.9375 10.40625 -14.375 10.40625 -12.34375 Z M 10.40625 -12.34375 "/></g></g></g><g fill="#97c52a" fill-opacity="1"><g transform="translate(53.481815, 42.561885)"><g><path d="M 16.5625 -18.640625 C 15.71875 -18.640625 14.910156 -18.503906 14.140625 -18.234375 C 13.378906 -17.960938 12.71875 -17.5625 12.15625 -17.03125 C 11.601562 -16.507812 11.15625 -15.859375 10.8125 -15.078125 C 10.476562 -14.304688 10.3125 -13.394531 10.3125 -12.34375 C 10.3125 -10.238281 10.910156 -8.660156 12.109375 -7.609375 C 13.316406 -6.566406 14.785156 -6.046875 16.515625 -6.046875 C 17.523438 -6.046875 18.398438 -6.160156 19.140625 -6.390625 C 19.890625 -6.628906 20.550781 -6.882812 21.125 -7.15625 C 21.800781 -6.6875 22.304688 -6.171875 22.640625 -5.609375 C 22.984375 -5.054688 23.15625 -4.390625 23.15625 -3.609375 C 23.15625 -2.222656 22.492188 -1.144531 21.171875 -0.375 C 19.859375 0.382812 18.035156 0.765625 15.703125 0.765625 C 13.566406 0.765625 11.632812 0.453125 9.90625 -0.171875 C 8.175781 -0.804688 6.691406 -1.6875 5.453125 -2.8125 C 4.222656 -3.945312 3.269531 -5.3125 2.59375 -6.90625 C 1.914062 -8.5 1.578125 -10.257812 1.578125 -12.1875 C 1.578125 -14.425781 1.941406 -16.382812 2.671875 -18.0625 C 3.398438 -19.738281 4.390625 -21.117188 5.640625 -22.203125 C 6.890625 -23.285156 8.332031 -24.097656 9.96875 -24.640625 C 11.613281 -25.179688 13.351562 -25.453125 15.1875 -25.453125 C 17.625 -25.453125 19.503906 -25.007812 20.828125 -24.125 C 22.148438 -23.25 22.8125 -22.113281 22.8125 -20.71875 C 22.8125 -20.082031 22.65625 -19.484375 22.34375 -18.921875 C 22.039062 -18.359375 21.6875 -17.875 21.28125 -17.46875 C 20.707031 -17.738281 20.015625 -18 19.203125 -18.25 C 18.390625 -18.507812 17.507812 -18.640625 16.5625 -18.640625 Z M 16.5625 -18.640625 "/></g></g></g><g fill="#97c52a" fill-opacity="1"><g transform="translate(76.494744, 42.561885)"><g><path d="M 13.203125 -5.484375 C 13.785156 -5.484375 14.421875 -5.539062 15.109375 -5.65625 C 15.804688 -5.78125 16.320312 -5.941406 16.65625 -6.140625 L 16.65625 -10.203125 L 13 -9.90625 C 12.050781 -9.832031 11.269531 -9.625 10.65625 -9.28125 C 10.050781 -8.945312 9.75 -8.441406 9.75 -7.765625 C 9.75 -7.085938 10.007812 -6.535156 10.53125 -6.109375 C 11.0625 -5.691406 11.953125 -5.484375 13.203125 -5.484375 Z M 12.796875 -25.453125 C 14.628906 -25.453125 16.296875 -25.265625 17.796875 -24.890625 C 19.304688 -24.515625 20.59375 -23.945312 21.65625 -23.1875 C 22.726562 -22.425781 23.550781 -21.460938 24.125 -20.296875 C 24.695312 -19.128906 24.984375 -17.75 24.984375 -16.15625 L 24.984375 -4.78125 C 24.984375 -3.894531 24.738281 -3.171875 24.25 -2.609375 C 23.757812 -2.054688 23.175781 -1.578125 22.5 -1.171875 C 20.300781 0.148438 17.203125 0.8125 13.203125 0.8125 C 11.410156 0.8125 9.796875 0.640625 8.359375 0.296875 C 6.921875 -0.0351562 5.679688 -0.539062 4.640625 -1.21875 C 3.609375 -1.894531 2.8125 -2.757812 2.25 -3.8125 C 1.695312 -4.863281 1.421875 -6.082031 1.421875 -7.46875 C 1.421875 -9.800781 2.113281 -11.59375 3.5 -12.84375 C 4.894531 -14.101562 7.046875 -14.882812 9.953125 -15.1875 L 16.609375 -15.90625 L 16.609375 -16.25 C 16.609375 -17.238281 16.175781 -17.941406 15.3125 -18.359375 C 14.445312 -18.785156 13.203125 -19 11.578125 -19 C 10.296875 -19 9.046875 -18.863281 7.828125 -18.59375 C 6.609375 -18.320312 5.503906 -17.984375 4.515625 -17.578125 C 4.078125 -17.878906 3.707031 -18.34375 3.40625 -18.96875 C 3.101562 -19.59375 2.953125 -20.242188 2.953125 -20.921875 C 2.953125 -21.804688 3.160156 -22.507812 3.578125 -23.03125 C 4.003906 -23.5625 4.65625 -24.007812 5.53125 -24.375 C 6.519531 -24.75 7.679688 -25.019531 9.015625 -25.1875 C 10.347656 -25.363281 11.609375 -25.453125 12.796875 -25.453125 Z M 12.796875 -25.453125 "/></g></g></g><g fill="#97c52a" fill-opacity="1"><g transform="translate(102.301747, 42.561885)"><g><path d="M 11.28125 -8.484375 C 11.28125 -7.597656 11.554688 -6.96875 12.109375 -6.59375 C 12.671875 -6.226562 13.460938 -6.046875 14.484375 -6.046875 C 14.984375 -6.046875 15.503906 -6.085938 16.046875 -6.171875 C 16.585938 -6.253906 17.0625 -6.363281 17.46875 -6.5 C 17.78125 -6.125 18.046875 -5.707031 18.265625 -5.25 C 18.484375 -4.800781 18.59375 -4.253906 18.59375 -3.609375 C 18.59375 -2.316406 18.109375 -1.265625 17.140625 -0.453125 C 16.179688 0.359375 14.476562 0.765625 12.03125 0.765625 C 9.050781 0.765625 6.757812 0.0859375 5.15625 -1.265625 C 3.550781 -2.617188 2.75 -4.820312 2.75 -7.875 L 2.75 -29.609375 C 3.113281 -29.710938 3.644531 -29.820312 4.34375 -29.9375 C 5.039062 -30.0625 5.773438 -30.125 6.546875 -30.125 C 8.035156 -30.125 9.195312 -29.859375 10.03125 -29.328125 C 10.863281 -28.804688 11.28125 -27.703125 11.28125 -26.015625 L 11.28125 -22.75 L 17.9375 -22.75 C 18.132812 -22.382812 18.328125 -21.921875 18.515625 -21.359375 C 18.703125 -20.796875 18.796875 -20.175781 18.796875 -19.5 C 18.796875 -18.320312 18.53125 -17.46875 18 -16.9375 C 17.476562 -16.414062 16.78125 -16.15625 15.90625 -16.15625 L 11.28125 -16.15625 Z M 11.28125 -8.484375 "/></g></g></g><g fill="#97c52a" fill-opacity="1"><g transform="translate(120.488587, 42.561885)"><g><path d="M 15.703125 0.8125 C 13.703125 0.8125 11.84375 0.535156 10.125 -0.015625 C 8.414062 -0.578125 6.925781 -1.414062 5.65625 -2.53125 C 4.394531 -3.65625 3.398438 -5.0625 2.671875 -6.75 C 1.941406 -8.445312 1.578125 -10.429688 1.578125 -12.703125 C 1.578125 -14.929688 1.941406 -16.847656 2.671875 -18.453125 C 3.398438 -20.066406 4.351562 -21.390625 5.53125 -22.421875 C 6.71875 -23.453125 8.070312 -24.210938 9.59375 -24.703125 C 11.125 -25.203125 12.6875 -25.453125 14.28125 -25.453125 C 16.070312 -25.453125 17.703125 -25.179688 19.171875 -24.640625 C 20.648438 -24.097656 21.921875 -23.351562 22.984375 -22.40625 C 24.046875 -21.457031 24.875 -20.320312 25.46875 -19 C 26.0625 -17.675781 26.359375 -16.238281 26.359375 -14.6875 C 26.359375 -13.53125 26.035156 -12.644531 25.390625 -12.03125 C 24.753906 -11.425781 23.859375 -11.039062 22.703125 -10.875 L 10.15625 -8.984375 C 10.53125 -7.867188 11.289062 -7.03125 12.4375 -6.46875 C 13.59375 -5.914062 14.914062 -5.640625 16.40625 -5.640625 C 17.789062 -5.640625 19.101562 -5.816406 20.34375 -6.171875 C 21.582031 -6.523438 22.585938 -6.941406 23.359375 -7.421875 C 23.898438 -7.078125 24.359375 -6.597656 24.734375 -5.984375 C 25.109375 -5.378906 25.296875 -4.738281 25.296875 -4.0625 C 25.296875 -2.539062 24.582031 -1.40625 23.15625 -0.65625 C 22.070312 -0.0820312 20.851562 0.300781 19.5 0.5 C 18.144531 0.707031 16.878906 0.8125 15.703125 0.8125 Z M 14.28125 -19.15625 C 13.46875 -19.15625 12.765625 -19.019531 12.171875 -18.75 C 11.578125 -18.476562 11.09375 -18.128906 10.71875 -17.703125 C 10.34375 -17.273438 10.0625 -16.800781 9.875 -16.28125 C 9.6875 -15.757812 9.578125 -15.226562 9.546875 -14.6875 L 18.234375 -16.109375 C 18.128906 -16.785156 17.753906 -17.460938 17.109375 -18.140625 C 16.472656 -18.816406 15.53125 -19.15625 14.28125 -19.15625 Z M 14.28125 -19.15625 "/></g></g></g><g fill="#97c52a" fill-opacity="1"><g transform="translate(146.5496, 42.561885)"><g><path d="M 11.28125 -0.046875 C 10.9375 0.0546875 10.398438 0.15625 9.671875 0.25 C 8.941406 0.351562 8.191406 0.40625 7.421875 0.40625 C 6.671875 0.40625 6 0.351562 5.40625 0.25 C 4.8125 0.15625 4.3125 -0.0390625 3.90625 -0.34375 C 3.5 -0.65625 3.1875 -1.070312 2.96875 -1.59375 C 2.75 -2.125 2.640625 -2.8125 2.640625 -3.65625 L 2.640625 -18.890625 C 2.640625 -19.671875 2.78125 -20.335938 3.0625 -20.890625 C 3.351562 -21.453125 3.769531 -21.957031 4.3125 -22.40625 C 4.851562 -22.84375 5.519531 -23.238281 6.3125 -23.59375 C 7.113281 -23.945312 7.972656 -24.257812 8.890625 -24.53125 C 9.804688 -24.800781 10.753906 -25.015625 11.734375 -25.171875 C 12.710938 -25.328125 13.695312 -25.40625 14.6875 -25.40625 C 16.3125 -25.40625 17.597656 -25.085938 18.546875 -24.453125 C 19.492188 -23.828125 19.96875 -22.804688 19.96875 -21.390625 C 19.96875 -20.910156 19.898438 -20.441406 19.765625 -19.984375 C 19.628906 -19.523438 19.457031 -19.113281 19.25 -18.75 C 18.539062 -18.75 17.8125 -18.710938 17.0625 -18.640625 C 16.320312 -18.578125 15.59375 -18.476562 14.875 -18.34375 C 14.164062 -18.207031 13.5 -18.0625 12.875 -17.90625 C 12.25 -17.75 11.71875 -17.570312 11.28125 -17.375 Z M 11.28125 -0.046875 "/></g></g></g><g fill="#97c52a" fill-opacity="1"><g transform="translate(165.092022, 42.561885)"><g><path d="M 11.28125 -0.046875 C 10.9375 0.0546875 10.398438 0.15625 9.671875 0.25 C 8.941406 0.351562 8.191406 0.40625 7.421875 0.40625 C 6.671875 0.40625 6 0.351562 5.40625 0.25 C 4.8125 0.15625 4.3125 -0.0390625 3.90625 -0.34375 C 3.5 -0.65625 3.1875 -1.070312 2.96875 -1.59375 C 2.75 -2.125 2.640625 -2.8125 2.640625 -3.65625 L 2.640625 -18.890625 C 2.640625 -19.671875 2.78125 -20.335938 3.0625 -20.890625 C 3.351562 -21.453125 3.769531 -21.957031 4.3125 -22.40625 C 4.851562 -22.84375 5.519531 -23.238281 6.3125 -23.59375 C 7.113281 -23.945312 7.972656 -24.257812 8.890625 -24.53125 C 9.804688 -24.800781 10.753906 -25.015625 11.734375 -25.171875 C 12.710938 -25.328125 13.695312 -25.40625 14.6875 -25.40625 C 16.3125 -25.40625 17.597656 -25.085938 18.546875 -24.453125 C 19.492188 -23.828125 19.96875 -22.804688 19.96875 -21.390625 C 19.96875 -20.910156 19.898438 -20.441406 19.765625 -19.984375 C 19.628906 -19.523438 19.457031 -19.113281 19.25 -18.75 C 18.539062 -18.75 17.8125 -18.710938 17.0625 -18.640625 C 16.320312 -18.578125 15.59375 -18.476562 14.875 -18.34375 C 14.164062 -18.207031 13.5 -18.0625 12.875 -17.90625 C 12.25 -17.75 11.71875 -17.570312 11.28125 -17.375 Z M 11.28125 -0.046875 "/></g></g></g><g fill="#97c52a" fill-opacity="1"><g transform="translate(183.380456, 42.561885)"><g><path d="M 13.203125 -5.484375 C 13.785156 -5.484375 14.421875 -5.539062 15.109375 -5.65625 C 15.804688 -5.78125 16.320312 -5.941406 16.65625 -6.140625 L 16.65625 -10.203125 L 13 -9.90625 C 12.050781 -9.832031 11.269531 -9.625 10.65625 -9.28125 C 10.050781 -8.945312 9.75 -8.441406 9.75 -7.765625 C 9.75 -7.085938 10.007812 -6.535156 10.53125 -6.109375 C 11.0625 -5.691406 11.953125 -5.484375 13.203125 -5.484375 Z M 12.796875 -25.453125 C 14.628906 -25.453125 16.296875 -25.265625 17.796875 -24.890625 C 19.304688 -24.515625 20.59375 -23.945312 21.65625 -23.1875 C 22.726562 -22.425781 23.550781 -21.460938 24.125 -20.296875 C 24.695312 -19.128906 24.984375 -17.75 24.984375 -16.15625 L 24.984375 -4.78125 C 24.984375 -3.894531 24.738281 -3.171875 24.25 -2.609375 C 23.757812 -2.054688 23.175781 -1.578125 22.5 -1.171875 C 20.300781 0.148438 17.203125 0.8125 13.203125 0.8125 C 11.410156 0.8125 9.796875 0.640625 8.359375 0.296875 C 6.921875 -0.0351562 5.679688 -0.539062 4.640625 -1.21875 C 3.609375 -1.894531 2.8125 -2.757812 2.25 -3.8125 C 1.695312 -4.863281 1.421875 -6.082031 1.421875 -7.46875 C 1.421875 -9.800781 2.113281 -11.59375 3.5 -12.84375 C 4.894531 -14.101562 7.046875 -14.882812 9.953125 -15.1875 L 16.609375 -15.90625 L 16.609375 -16.25 C 16.609375 -17.238281 16.175781 -17.941406 15.3125 -18.359375 C 14.445312 -18.785156 13.203125 -19 11.578125 -19 C 10.296875 -19 9.046875 -18.863281 7.828125 -18.59375 C 6.609375 -18.320312 5.503906 -17.984375 4.515625 -17.578125 C 4.078125 -17.878906 3.707031 -18.34375 3.40625 -18.96875 C 3.101562 -19.59375 2.953125 -20.242188 2.953125 -20.921875 C 2.953125 -21.804688 3.160156 -22.507812 3.578125 -23.03125 C 4.003906 -23.5625 4.65625 -24.007812 5.53125 -24.375 C 6.519531 -24.75 7.679688 -25.019531 9.015625 -25.1875 C 10.347656 -25.363281 11.609375 -25.453125 12.796875 -25.453125 Z M 12.796875 -25.453125 "/></g></g></g></g></g></g></svg>