<svg xmlns="http://www.w3.org/2000/svg" xmlns:xlink="http://www.w3.org/1999/xlink" width="270" zoomAndPan="magnify" viewBox="0 0 203.04 97.92" height="120" preserveAspectRatio="xMidYMid meet" version="1.2"><defs><clipPath id="25a5791909"><path d="M 0 2 L 201.546875 2 L 201.546875 89 L 0 89 Z M 0 2 "/></clipPath><clipPath id="b908e8a096"><path d="M 1.046875 0.949219 L 115.550781 0.949219 L 115.550781 80 L 1.046875 80 Z M 1.046875 0.949219 "/></clipPath><clipPath id="21befcd533"><rect x="0" width="103" y="0" height="50"/></clipPath><clipPath id="525fbb190c"><path d="M 150 73 L 201.546875 73 L 201.546875 86.09375 L 150 86.09375 Z M 150 73 "/></clipPath><clipPath id="876931b26d"><path d="M 0.25 2 L 6 2 L 6 9 L 0.25 9 Z M 0.25 2 "/></clipPath><clipPath id="e63de00956"><rect x="0" width="52" y="0" height="14"/></clipPath><clipPath id="ae0b6744a4"><rect x="0" width="202" y="0" height="87"/></clipPath></defs><g id="0a2fc3d43d"><g clip-rule="nonzero" clip-path="url(#25a5791909)"><g transform="matrix(1,0,0,1,0,2)"><g clip-path="url(#ae0b6744a4)"><g clip-rule="nonzero" clip-path="url(#b908e8a096)"><path style=" stroke:none;fill-rule:nonzero;fill:#4a3a6b;fill-opacity:1;" d="M 247.75 75.46875 C 248.980469 75.46875 249.972656 76.464844 249.972656 77.691406 C 249.972656 78.921875 248.980469 79.914062 247.75 79.914062 L 19.484375 79.914062 C 17.285156 79.914062 15.285156 79.015625 13.839844 77.570312 C 12.394531 76.125 11.496094 74.125 11.496094 71.929688 L 11.496094 43.847656 L 7.535156 43.847656 C 5.988281 43.847656 4.714844 43.441406 3.71875 42.769531 C 2.621094 42.023438 1.890625 40.972656 1.523438 39.777344 L 1.519531 39.777344 C 1.183594 38.667969 1.171875 37.445312 1.476562 36.257812 C 1.839844 34.84375 2.65625 33.464844 3.894531 32.394531 L 37.929688 3.054688 C 39.558594 1.652344 41.671875 0.949219 43.761719 0.949219 C 45.851562 0.949219 47.960938 1.652344 49.589844 3.054688 L 72.464844 22.839844 C 73.390625 23.636719 73.488281 25.039062 72.691406 25.964844 C 71.890625 26.890625 70.488281 26.992188 69.5625 26.191406 L 46.691406 6.40625 C 45.910156 5.734375 44.84375 5.398438 43.761719 5.398438 C 42.675781 5.398438 41.613281 5.734375 40.828125 6.40625 L 6.796875 35.746094 C 6.261719 36.207031 5.914062 36.78125 5.765625 37.351562 C 5.664062 37.753906 5.660156 38.144531 5.757812 38.472656 L 5.757812 38.484375 C 5.832031 38.722656 5.980469 38.933594 6.203125 39.085938 C 6.492188 39.28125 6.933594 39.398438 7.535156 39.398438 L 13.71875 39.398438 C 14.945312 39.398438 15.941406 40.394531 15.941406 41.621094 L 15.941406 71.929688 C 15.941406 72.898438 16.339844 73.785156 16.984375 74.429688 C 17.625 75.070312 18.511719 75.46875 19.484375 75.46875 Z M 247.75 75.46875 "/></g><g transform="matrix(1,0,0,1,54,28)"><g id="0de6ad1705" clip-path="url(#21befcd533)"><g style="fill:#000000;fill-opacity:1;"><g transform="translate(0.748013, 38.714329)"><path style="stroke:none" d="M 11.359375 0.375 C 9.472656 0.375 7.804688 -0.015625 6.359375 -0.796875 C 4.910156 -1.585938 3.78125 -2.738281 2.96875 -4.25 C 2.15625 -5.769531 1.75 -7.597656 1.75 -9.734375 C 1.75 -11.878906 2.15625 -13.707031 2.96875 -15.21875 C 3.78125 -16.738281 4.90625 -17.890625 6.34375 -18.671875 C 7.78125 -19.460938 9.421875 -19.859375 11.265625 -19.859375 C 15.378906 -19.859375 18.007812 -18.367188 19.15625 -15.390625 L 15.8125 -12.984375 L 15.4375 -12.984375 C 15.039062 -13.898438 14.519531 -14.582031 13.875 -15.03125 C 13.226562 -15.476562 12.359375 -15.703125 11.265625 -15.703125 C 9.859375 -15.703125 8.757812 -15.210938 7.96875 -14.234375 C 7.175781 -13.253906 6.78125 -11.753906 6.78125 -9.734375 C 6.78125 -7.734375 7.179688 -6.238281 7.984375 -5.25 C 8.785156 -4.269531 9.910156 -3.78125 11.359375 -3.78125 C 12.421875 -3.78125 13.316406 -4.066406 14.046875 -4.640625 C 14.785156 -5.210938 15.3125 -6.03125 15.625 -7.09375 L 16 -7.140625 L 19.484375 -5.234375 C 18.984375 -3.578125 18.066406 -2.226562 16.734375 -1.1875 C 15.398438 -0.144531 13.609375 0.375 11.359375 0.375 Z M 11.359375 0.375 "/></g></g><g style="fill:#000000;fill-opacity:1;"><g transform="translate(19.127966, 38.714329)"><path style="stroke:none" d="M 11.328125 0.375 C 9.410156 0.375 7.734375 -0.015625 6.296875 -0.796875 C 4.859375 -1.585938 3.738281 -2.738281 2.9375 -4.25 C 2.144531 -5.757812 1.75 -7.585938 1.75 -9.734375 C 1.75 -11.878906 2.144531 -13.707031 2.9375 -15.21875 C 3.738281 -16.738281 4.859375 -17.890625 6.296875 -18.671875 C 7.734375 -19.460938 9.410156 -19.859375 11.328125 -19.859375 C 13.234375 -19.859375 14.90625 -19.460938 16.34375 -18.671875 C 17.789062 -17.890625 18.910156 -16.738281 19.703125 -15.21875 C 20.503906 -13.707031 20.90625 -11.878906 20.90625 -9.734375 C 20.90625 -7.585938 20.503906 -5.757812 19.703125 -4.25 C 18.910156 -2.738281 17.789062 -1.585938 16.34375 -0.796875 C 14.90625 -0.015625 13.234375 0.375 11.328125 0.375 Z M 11.328125 -3.78125 C 14.347656 -3.78125 15.859375 -5.765625 15.859375 -9.734375 C 15.859375 -11.796875 15.46875 -13.304688 14.6875 -14.265625 C 13.914062 -15.222656 12.796875 -15.703125 11.328125 -15.703125 C 8.296875 -15.703125 6.78125 -13.710938 6.78125 -9.734375 C 6.78125 -5.765625 8.296875 -3.78125 11.328125 -3.78125 Z M 11.328125 -3.78125 "/></g></g><g style="fill:#000000;fill-opacity:1;"><g transform="translate(40.068692, 38.714329)"><path style="stroke:none" d="M 8.09375 0.375 C 6.332031 0.375 4.988281 -0.0976562 4.0625 -1.046875 C 3.144531 -1.992188 2.6875 -3.4375 2.6875 -5.375 L 2.6875 -27.3125 L 7.578125 -27.3125 L 7.578125 -5.5625 C 7.578125 -4.375 8.070312 -3.78125 9.0625 -3.78125 C 9.34375 -3.78125 9.644531 -3.828125 9.96875 -3.921875 L 10.203125 -3.84375 L 10.65625 -0.09375 C 10.382812 0.0507812 10.023438 0.164062 9.578125 0.25 C 9.128906 0.332031 8.632812 0.375 8.09375 0.375 Z M 8.09375 0.375 "/></g></g><g style="fill:#000000;fill-opacity:1;"><g transform="translate(49.565387, 38.714329)"><path style="stroke:none" d="M 5.25 -21.8125 C 4.363281 -21.8125 3.644531 -22.078125 3.09375 -22.609375 C 2.539062 -23.148438 2.265625 -23.84375 2.265625 -24.6875 C 2.265625 -25.53125 2.539062 -26.21875 3.09375 -26.75 C 3.644531 -27.28125 4.363281 -27.546875 5.25 -27.546875 C 5.832031 -27.546875 6.351562 -27.421875 6.8125 -27.171875 C 7.269531 -26.929688 7.625 -26.59375 7.875 -26.15625 C 8.132812 -25.726562 8.265625 -25.238281 8.265625 -24.6875 C 8.265625 -24.132812 8.132812 -23.640625 7.875 -23.203125 C 7.625 -22.765625 7.269531 -22.421875 6.8125 -22.171875 C 6.351562 -21.929688 5.832031 -21.8125 5.25 -21.8125 Z M 2.8125 0 L 2.8125 -19.484375 L 7.703125 -19.484375 L 7.703125 0 Z M 2.8125 0 "/></g></g><g style="fill:#000000;fill-opacity:1;"><g transform="translate(58.355659, 38.714329)"><path style="stroke:none" d="M 13.625 0.375 C 11.132812 0.375 9.285156 -0.554688 8.078125 -2.421875 L 7.703125 -2.34375 L 7.703125 0 L 2.8125 0 L 2.8125 -27.3125 L 7.703125 -27.3125 L 7.703125 -17.1875 L 8.078125 -17.109375 C 8.742188 -18.046875 9.53125 -18.738281 10.4375 -19.1875 C 11.351562 -19.632812 12.445312 -19.859375 13.71875 -19.859375 C 15.300781 -19.859375 16.679688 -19.484375 17.859375 -18.734375 C 19.035156 -17.992188 19.953125 -16.867188 20.609375 -15.359375 C 21.265625 -13.847656 21.59375 -11.972656 21.59375 -9.734375 C 21.59375 -7.515625 21.25 -5.648438 20.5625 -4.140625 C 19.882812 -2.628906 18.945312 -1.5 17.75 -0.75 C 16.550781 0 15.175781 0.375 13.625 0.375 Z M 12.140625 -3.78125 C 13.566406 -3.78125 14.65625 -4.257812 15.40625 -5.21875 C 16.164062 -6.175781 16.546875 -7.679688 16.546875 -9.734375 C 16.546875 -11.796875 16.164062 -13.304688 15.40625 -14.265625 C 14.65625 -15.222656 13.566406 -15.703125 12.140625 -15.703125 C 10.753906 -15.703125 9.65625 -15.207031 8.84375 -14.21875 C 8.039062 -13.226562 7.640625 -11.734375 7.640625 -9.734375 C 7.640625 -7.734375 8.039062 -6.238281 8.84375 -5.25 C 9.65625 -4.269531 10.753906 -3.78125 12.140625 -3.78125 Z M 12.140625 -3.78125 "/></g></g><g style="fill:#000000;fill-opacity:1;"><g transform="translate(79.985152, 38.714329)"><path style="stroke:none" d="M 2.8125 0 L 2.8125 -19.484375 L 7.5625 -19.484375 L 7.5625 -16.578125 L 7.9375 -16.515625 C 8.40625 -17.597656 9.019531 -18.390625 9.78125 -18.890625 C 10.550781 -19.398438 11.484375 -19.65625 12.578125 -19.65625 C 13.679688 -19.65625 14.519531 -19.46875 15.09375 -19.09375 L 14.265625 -14.875 L 13.90625 -14.796875 C 13.582031 -14.929688 13.273438 -15.023438 12.984375 -15.078125 C 12.691406 -15.140625 12.332031 -15.171875 11.90625 -15.171875 C 10.539062 -15.171875 9.5 -14.691406 8.78125 -13.734375 C 8.0625 -12.773438 7.703125 -11.234375 7.703125 -9.109375 L 7.703125 0 Z M 2.8125 0 "/></g></g><g style="fill:#000000;fill-opacity:1;"><g transform="translate(93.561437, 38.714329)"><path style="stroke:none" d="M 5.25 -21.8125 C 4.363281 -21.8125 3.644531 -22.078125 3.09375 -22.609375 C 2.539062 -23.148438 2.265625 -23.84375 2.265625 -24.6875 C 2.265625 -25.53125 2.539062 -26.21875 3.09375 -26.75 C 3.644531 -27.28125 4.363281 -27.546875 5.25 -27.546875 C 5.832031 -27.546875 6.351562 -27.421875 6.8125 -27.171875 C 7.269531 -26.929688 7.625 -26.59375 7.875 -26.15625 C 8.132812 -25.726562 8.265625 -25.238281 8.265625 -24.6875 C 8.265625 -24.132812 8.132812 -23.640625 7.875 -23.203125 C 7.625 -22.765625 7.269531 -22.421875 6.8125 -22.171875 C 6.351562 -21.929688 5.832031 -21.8125 5.25 -21.8125 Z M 2.8125 0 L 2.8125 -19.484375 L 7.703125 -19.484375 L 7.703125 0 Z M 2.8125 0 "/></g></g></g></g><g clip-rule="nonzero" clip-path="url(#525fbb190c)"><g transform="matrix(1,0,0,1,150,73)"><g id="6b60b4921b" clip-path="url(#e63de00956)"><g clip-rule="nonzero" clip-path="url(#876931b26d)"><g style="fill:#000000;fill-opacity:1;"><g transform="translate(0.399004, 8.851576)"><path style="stroke:none" d="M 5.125 -1.859375 C 5.125 -1.492188 5.0625 -1.1875 4.9375 -0.9375 C 4.8125 -0.6875 4.632812 -0.484375 4.40625 -0.328125 C 4.1875 -0.171875 3.929688 -0.0625 3.640625 0 C 3.347656 0.0625 3.039062 0.09375 2.71875 0.09375 C 2.257812 0.09375 1.828125 0.0351562 1.421875 -0.078125 C 1.023438 -0.203125 0.671875 -0.351562 0.359375 -0.53125 L 0.859375 -1.5625 C 1.023438 -1.457031 1.179688 -1.363281 1.328125 -1.28125 C 1.472656 -1.207031 1.613281 -1.148438 1.75 -1.109375 C 1.894531 -1.066406 2.046875 -1.035156 2.203125 -1.015625 C 2.359375 -1.003906 2.523438 -1 2.703125 -1 C 3.035156 -1 3.304688 -1.054688 3.515625 -1.171875 C 3.722656 -1.296875 3.828125 -1.515625 3.828125 -1.828125 C 3.828125 -1.992188 3.78125 -2.128906 3.6875 -2.234375 C 3.59375 -2.335938 3.46875 -2.421875 3.3125 -2.484375 C 3.15625 -2.546875 2.976562 -2.597656 2.78125 -2.640625 C 2.582031 -2.679688 2.378906 -2.726562 2.171875 -2.78125 C 1.960938 -2.84375 1.757812 -2.914062 1.5625 -3 C 1.363281 -3.082031 1.1875 -3.195312 1.03125 -3.34375 C 0.875 -3.5 0.75 -3.691406 0.65625 -3.921875 C 0.5625 -4.148438 0.515625 -4.429688 0.515625 -4.765625 C 0.515625 -5.054688 0.570312 -5.3125 0.6875 -5.53125 C 0.8125 -5.75 0.972656 -5.925781 1.171875 -6.0625 C 1.367188 -6.207031 1.601562 -6.3125 1.875 -6.375 C 2.144531 -6.445312 2.4375 -6.484375 2.75 -6.484375 C 3.207031 -6.484375 3.617188 -6.4375 3.984375 -6.34375 C 4.347656 -6.25 4.675781 -6.128906 4.96875 -5.984375 L 4.546875 -4.96875 C 4.328125 -5.082031 4.066406 -5.179688 3.765625 -5.265625 C 3.460938 -5.359375 3.125 -5.40625 2.75 -5.40625 C 2.476562 -5.40625 2.253906 -5.351562 2.078125 -5.25 C 1.898438 -5.144531 1.8125 -4.984375 1.8125 -4.765625 C 1.8125 -4.515625 1.890625 -4.328125 2.046875 -4.203125 C 2.210938 -4.078125 2.414062 -3.976562 2.65625 -3.90625 C 2.90625 -3.84375 3.171875 -3.78125 3.453125 -3.71875 C 3.742188 -3.664062 4.007812 -3.570312 4.25 -3.4375 C 4.5 -3.3125 4.707031 -3.125 4.875 -2.875 C 5.039062 -2.632812 5.125 -2.296875 5.125 -1.859375 Z M 5.125 -1.859375 "/></g></g></g><g style="fill:#000000;fill-opacity:1;"><g transform="translate(7.69923, 8.851576)"><path style="stroke:none" d="M 3.046875 -5.3125 L 2.390625 -5.3125 L 2.390625 -1.09375 L 3.046875 -1.09375 L 3.046875 0 L 0.4375 0 L 0.4375 -1.09375 L 1.09375 -1.09375 L 1.09375 -5.3125 L 0.4375 -5.3125 L 0.4375 -6.40625 L 3.046875 -6.40625 Z M 3.046875 -5.3125 "/></g></g><g style="fill:#000000;fill-opacity:1;"><g transform="translate(12.980638, 8.851576)"><path style="stroke:none" d="M 5.125 -1.859375 C 5.125 -1.492188 5.0625 -1.1875 4.9375 -0.9375 C 4.8125 -0.6875 4.632812 -0.484375 4.40625 -0.328125 C 4.1875 -0.171875 3.929688 -0.0625 3.640625 0 C 3.347656 0.0625 3.039062 0.09375 2.71875 0.09375 C 2.257812 0.09375 1.828125 0.0351562 1.421875 -0.078125 C 1.023438 -0.203125 0.671875 -0.351562 0.359375 -0.53125 L 0.859375 -1.5625 C 1.023438 -1.457031 1.179688 -1.363281 1.328125 -1.28125 C 1.472656 -1.207031 1.613281 -1.148438 1.75 -1.109375 C 1.894531 -1.066406 2.046875 -1.035156 2.203125 -1.015625 C 2.359375 -1.003906 2.523438 -1 2.703125 -1 C 3.035156 -1 3.304688 -1.054688 3.515625 -1.171875 C 3.722656 -1.296875 3.828125 -1.515625 3.828125 -1.828125 C 3.828125 -1.992188 3.78125 -2.128906 3.6875 -2.234375 C 3.59375 -2.335938 3.46875 -2.421875 3.3125 -2.484375 C 3.15625 -2.546875 2.976562 -2.597656 2.78125 -2.640625 C 2.582031 -2.679688 2.378906 -2.726562 2.171875 -2.78125 C 1.960938 -2.84375 1.757812 -2.914062 1.5625 -3 C 1.363281 -3.082031 1.1875 -3.195312 1.03125 -3.34375 C 0.875 -3.5 0.75 -3.691406 0.65625 -3.921875 C 0.5625 -4.148438 0.515625 -4.429688 0.515625 -4.765625 C 0.515625 -5.054688 0.570312 -5.3125 0.6875 -5.53125 C 0.8125 -5.75 0.972656 -5.925781 1.171875 -6.0625 C 1.367188 -6.207031 1.601562 -6.3125 1.875 -6.375 C 2.144531 -6.445312 2.4375 -6.484375 2.75 -6.484375 C 3.207031 -6.484375 3.617188 -6.4375 3.984375 -6.34375 C 4.347656 -6.25 4.675781 -6.128906 4.96875 -5.984375 L 4.546875 -4.96875 C 4.328125 -5.082031 4.066406 -5.179688 3.765625 -5.265625 C 3.460938 -5.359375 3.125 -5.40625 2.75 -5.40625 C 2.476562 -5.40625 2.253906 -5.351562 2.078125 -5.25 C 1.898438 -5.144531 1.8125 -4.984375 1.8125 -4.765625 C 1.8125 -4.515625 1.890625 -4.328125 2.046875 -4.203125 C 2.210938 -4.078125 2.414062 -3.976562 2.65625 -3.90625 C 2.90625 -3.84375 3.171875 -3.78125 3.453125 -3.71875 C 3.742188 -3.664062 4.007812 -3.570312 4.25 -3.4375 C 4.5 -3.3125 4.707031 -3.125 4.875 -2.875 C 5.039062 -2.632812 5.125 -2.296875 5.125 -1.859375 Z M 5.125 -1.859375 "/></g></g><g style="fill:#000000;fill-opacity:1;"><g transform="translate(20.280864, 8.851576)"><path style="stroke:none" d="M 3.328125 -5.3125 L 3.328125 0 L 2.03125 0 L 2.03125 -5.3125 L 0.328125 -5.3125 L 0.328125 -6.40625 L 5.03125 -6.40625 L 5.03125 -5.3125 Z M 3.328125 -5.3125 "/></g></g><g style="fill:#000000;fill-opacity:1;"><g transform="translate(27.444059, 8.851576)"><path style="stroke:none" d="M 1.828125 -2.65625 L 1.828125 -1.09375 L 4.796875 -1.09375 L 4.796875 0 L 0.546875 0 L 0.546875 -6.40625 L 4.703125 -6.40625 L 4.703125 -5.3125 L 1.828125 -5.3125 L 1.828125 -3.75 L 4.5625 -3.75 L 4.5625 -2.65625 Z M 1.828125 -2.65625 "/></g></g><g style="fill:#000000;fill-opacity:1;"><g transform="translate(34.388021, 8.851576)"><path style="stroke:none" d="M 2.125 -6.40625 L 3.71875 -2.171875 L 5.3125 -6.40625 L 6.65625 -6.40625 L 7 0 L 5.71875 0 L 5.546875 -3.375 L 4.25 0 L 3.203125 0 L 1.90625 -3.375 L 1.734375 0 L 0.453125 0 L 0.78125 -6.40625 Z M 2.125 -6.40625 "/></g></g><g style="fill:#000000;fill-opacity:1;"><g transform="translate(43.624842, 8.851576)"><path style="stroke:none" d="M 4.328125 -1.375 L 2.03125 -1.375 L 1.546875 0 L 0.15625 0 L 2.5 -6.40625 L 3.859375 -6.40625 L 6.203125 0 L 4.8125 0 Z M 2.453125 -2.46875 L 3.90625 -2.46875 L 3.171875 -4.53125 Z M 2.453125 -2.46875 "/></g></g></g></g></g></g></g></g></g></svg>