<svg xmlns="http://www.w3.org/2000/svg" xmlns:xlink="http://www.w3.org/1999/xlink" width="500" zoomAndPan="magnify" viewBox="0 0 375 270" height="350" preserveAspectRatio="xMidYMid meet" version="1.2"><defs><clipPath id="3f9e714cc5"><path d="M 0 1.867188 L 375 1.867188 L 375 260.617188 L 0 260.617188 Z M 0 1.867188 "/></clipPath></defs><g id="e89cb5ef35"><g clip-rule="nonzero" clip-path="url(#3f9e714cc5)"><path style=" stroke:none;fill-rule:nonzero;fill:#4a3a6b;fill-opacity:1;" d="M 808.390625 246.046875 C 812.414062 246.046875 815.675781 249.3125 815.675781 253.332031 C 815.675781 257.355469 812.414062 260.617188 808.390625 260.617188 L 60.402344 260.617188 C 53.203125 260.617188 46.652344 257.671875 41.914062 252.933594 C 37.175781 248.195312 34.230469 241.648438 34.230469 234.445312 L 34.230469 142.425781 L 21.25 142.425781 C 16.183594 142.425781 12.007812 141.09375 8.753906 138.894531 C 5.144531 136.457031 2.753906 133.007812 1.554688 129.089844 L 1.546875 129.09375 C 0.433594 125.457031 0.398438 121.449219 1.398438 117.5625 C 2.589844 112.925781 5.265625 108.402344 9.328125 104.898438 L 120.847656 8.761719 C 126.191406 4.167969 133.113281 1.867188 139.957031 1.867188 C 146.804688 1.867188 153.726562 4.167969 159.058594 8.761719 L 234.007812 73.589844 C 237.042969 76.210938 237.371094 80.800781 234.75 83.832031 C 232.128906 86.867188 227.539062 87.199219 224.507812 84.574219 L 149.558594 19.75 C 146.996094 17.542969 143.511719 16.4375 139.957031 16.4375 C 136.40625 16.4375 132.914062 17.542969 130.351562 19.75 L 18.828125 115.886719 C 17.074219 117.398438 15.9375 119.277344 15.457031 121.148438 C 15.117188 122.464844 15.109375 123.742188 15.433594 124.824219 L 15.425781 124.824219 L 15.433594 124.851562 C 15.675781 125.632812 16.160156 126.332031 16.890625 126.824219 C 17.839844 127.46875 19.277344 127.855469 21.25 127.855469 L 41.515625 127.855469 C 45.535156 127.855469 48.800781 131.117188 48.800781 135.140625 L 48.800781 234.445312 C 48.800781 237.628906 50.109375 240.53125 52.214844 242.636719 C 54.316406 244.738281 57.21875 246.050781 60.402344 246.050781 L 808.390625 246.050781 Z M 808.390625 246.046875 "/></g></g></svg>